G04 DipTrace 2.3.1.0*
%INPC04Controller.GBL*%
%MOMM*%
%ADD13C,0.33*%
%ADD14C,1.27*%
%ADD15C,0.635*%
%ADD16C,0.66*%
%ADD17C,1.6*%
%ADD18R,1.6X1.6*%
%ADD19R,1.27X1.27*%
%ADD20C,1.27*%
%ADD21R,1.5X1.5*%
%ADD22C,1.5*%
%ADD23C,1.524*%
%ADD24C,1.524*%
%ADD25R,12.7X2.159*%
%ADD26O,2.0X1.0*%
%ADD27C,1.219*%
%ADD28C,1.016*%
%FSLAX53Y53*%
G04*
G71*
G90*
G75*
G01*
%LNBottom*%
%LPD*%
X87478Y121768D2*
D13*
X81128D1*
X62078Y102718D1*
X87478Y124943D2*
X81763D1*
X62078Y105258D1*
X87478Y128118D2*
X79858D1*
X62078Y110338D1*
Y107798D1*
X87478Y118593D2*
X80493D1*
X62078Y100178D1*
X87478Y115418D2*
X79858D1*
X62078Y97638D1*
X87478Y112243D2*
X79223D1*
X62078Y95098D1*
X87478Y109068D2*
X78588D1*
X62078Y92558D1*
X87478Y105893D2*
X77953D1*
X62078Y90018D1*
X87478Y23343D2*
X74778D1*
X66523Y31598D1*
Y57633D1*
X62078Y62078D1*
X87478Y26518D2*
X73508D1*
X67793Y32233D1*
Y58903D1*
X62078Y64618D1*
X87478Y29693D2*
X73508D1*
X69063Y34138D1*
Y60173D1*
X62078Y67158D1*
X87478Y32868D2*
X74143D1*
X70333Y36678D1*
Y61443D1*
X62078Y69698D1*
X87478Y39218D2*
X76048D1*
X71603Y43663D1*
Y62713D1*
X62078Y72238D1*
X87478Y42393D2*
X75413D1*
X72873Y44933D1*
Y63983D1*
X62078Y74778D1*
X87478Y45568D2*
X76048D1*
X74143Y47473D1*
Y65253D1*
X62078Y77318D1*
X87478Y48743D2*
X77318D1*
X75413Y50648D1*
Y66523D1*
X62078Y79858D1*
X87478Y99543D2*
X73508D1*
X87478Y96368D2*
X70333D1*
X87478Y93193D2*
X70333D1*
X69063Y94463D1*
X87478Y90018D2*
X70333D1*
X67158Y93193D1*
X87478Y102718D2*
X76683D1*
X87478Y86843D2*
X70968D1*
X65888Y91923D1*
X46838Y95098D2*
X50013D1*
X51283Y96368D1*
Y121133D1*
X54458Y124308D1*
X87478Y83668D2*
X71603D1*
X64618Y90653D1*
X46838Y92558D2*
X49378D1*
X52553Y95733D1*
Y119863D1*
X56998Y124308D1*
X87478Y20168D2*
X76048D1*
X65253Y30963D1*
Y52553D1*
X59538Y58268D1*
X87478Y55093D2*
X76683D1*
X87478Y67793D2*
X79223D1*
X77953Y69063D1*
Y74778D1*
X63983Y88748D1*
X46838Y90018D2*
X48743D1*
X53823Y95098D1*
Y118593D1*
X59538Y124308D1*
X72238Y37313D2*
X76048D1*
X77318Y36043D1*
X87478D1*
Y61443D2*
X77953D1*
X87478Y58268D2*
D14*
X77318D1*
D15*
X76683Y58903D1*
Y64618D1*
D14*
Y70968D1*
X62713Y84938D1*
D13*
X62078D1*
X87478Y64618D2*
D14*
X76683D1*
X62078Y84938D2*
D13*
X60808D1*
X59538Y86208D1*
Y111608D1*
X74143Y126213D1*
Y128753D1*
X76683Y131293D1*
D14*
X87478D1*
X56363Y84938D2*
D13*
X53823Y82398D1*
Y48108D1*
X42393Y36678D1*
X37948Y32233D1*
X37313D1*
X48108Y28423D2*
X41123D1*
X37313Y32233D1*
X34138Y74778D2*
Y80493D1*
X36043Y23978D2*
X38583D1*
X43663D1*
X48108Y28423D1*
X44298Y82398D2*
Y101448D1*
X40488Y105258D1*
Y109068D1*
X44298Y112878D1*
X34138D2*
X44298D1*
X34138Y80493D2*
X40488Y86843D1*
X43663Y62078D2*
Y59538D1*
X45568Y57633D1*
Y53823D1*
X42393Y50648D1*
Y36678D1*
X36043Y23978D2*
X32868Y20803D1*
X21438D1*
X14453Y27788D1*
X76048Y133198D2*
D14*
X74778D1*
X76683Y131293D1*
X46838Y84938D2*
D13*
X48743D1*
X52553Y81128D1*
Y51918D1*
X33503Y23978D2*
Y37948D1*
X36043Y40488D1*
X23343Y110338D2*
Y102083D1*
X25883Y78588D2*
Y81763D1*
X27788Y83668D1*
Y89383D1*
X27153Y90018D1*
Y95078D1*
X23343Y98888D1*
X58268Y112243D2*
D16*
Y87478D1*
Y84938D1*
X60808Y82398D1*
X62078D1*
X79858Y137643D2*
D14*
X87478D1*
X46838Y69698D2*
D13*
X48743D1*
X51283Y67158D1*
Y53188D1*
X45568Y47473D1*
X25883Y40488D2*
Y41123D1*
X39853Y55093D1*
Y69698D1*
X45568Y75413D1*
Y86208D1*
X46838Y87478D1*
X55093D1*
X56998Y89383D1*
Y112243D1*
X64618Y119863D1*
Y126213D1*
X62713Y128118D1*
X53188D1*
X51918Y126848D1*
Y124308D1*
X30963Y23978D2*
Y41758D1*
X42393Y53188D1*
Y70333D1*
X46838Y74778D1*
X28423Y23978D2*
Y41123D1*
X41123Y53823D1*
Y67158D1*
X36043Y98888D2*
Y99543D1*
X37313Y100813D1*
X41758D1*
X43028Y99543D1*
Y86843D1*
X39218Y83033D1*
Y72238D1*
X37948Y70968D1*
Y66523D1*
X32233Y65253D2*
Y66523D1*
X34138Y68428D1*
Y70333D1*
X29693Y74778D1*
Y79858D1*
X34773Y84938D1*
Y92538D1*
X41123Y98888D1*
X20803Y55728D2*
Y68428D1*
X20168Y69063D1*
X30963Y55728D2*
X27153D1*
X22708Y51283D1*
Y46838D1*
D28*
X73508Y99543D3*
X70333Y96368D3*
X69063Y94463D3*
X67158Y93193D3*
X76683Y102718D3*
X65888Y91923D3*
X64618Y90653D3*
X59538Y58268D3*
X76683Y55093D3*
X63983Y88748D3*
X77953Y61443D3*
X56363Y84938D3*
X44298Y112878D3*
Y82398D3*
X52553Y51918D3*
X23343Y110338D3*
X58268Y112243D3*
Y87478D3*
X79858Y137643D3*
X45568Y47473D3*
X41123Y67158D3*
X37948Y66523D3*
X41123Y67158D3*
X11024Y139868D2*
D15*
X76942D1*
X11024Y139237D2*
X76942D1*
X11024Y138605D2*
X76942D1*
X11024Y137973D2*
X76942D1*
X11024Y137342D2*
X76942D1*
X11024Y136710D2*
X76942D1*
X11024Y136078D2*
X76942D1*
X11024Y135447D2*
X76942D1*
X11024Y134815D2*
X76942D1*
X11024Y134183D2*
X59271D1*
X62344D2*
X76942D1*
X11024Y133552D2*
X59271D1*
X62344D2*
X76942D1*
X11024Y132920D2*
X59271D1*
X62344D2*
X76942D1*
X11024Y132288D2*
X59271D1*
X62344D2*
X76942D1*
X11024Y131657D2*
X76942D1*
X11024Y131025D2*
X76942D1*
X11024Y130393D2*
X76942D1*
X11024Y129762D2*
X76942D1*
X11024Y129130D2*
X76942D1*
X11024Y128498D2*
X52315D1*
X63585D2*
X76942D1*
X11024Y127867D2*
X51690D1*
X64210D2*
X76942D1*
X11024Y127235D2*
X51115D1*
X53554D2*
X62346D1*
X64845D2*
X76942D1*
X11024Y126603D2*
X51016D1*
X52919D2*
X62981D1*
X65420D2*
X76942D1*
X11024Y125972D2*
X51016D1*
X52819D2*
X63607D1*
X65519D2*
X76465D1*
X11024Y125340D2*
X45350D1*
X48325D2*
X50877D1*
X52958D2*
X53413D1*
X55498D2*
X55953D1*
X58038D2*
X58493D1*
X60578D2*
X63716D1*
X65519D2*
X75830D1*
X11024Y124708D2*
X45350D1*
X48325D2*
X50490D1*
X60965D2*
X63716D1*
X65519D2*
X75195D1*
X11024Y124077D2*
X45350D1*
X48325D2*
X50450D1*
X61005D2*
X63716D1*
X65519D2*
X74570D1*
X11024Y123445D2*
X45350D1*
X48325D2*
X50718D1*
X60737D2*
X63716D1*
X65519D2*
X73935D1*
X11024Y122813D2*
X51710D1*
X59289D2*
X63716D1*
X65519D2*
X73300D1*
X11024Y122182D2*
X51085D1*
X58663D2*
X63716D1*
X65519D2*
X72675D1*
X11024Y121550D2*
X50490D1*
X58028D2*
X63716D1*
X65519D2*
X72040D1*
X11024Y120918D2*
X50381D1*
X57393D2*
X63716D1*
X65519D2*
X71415D1*
X11024Y120287D2*
X50381D1*
X56768D2*
X63716D1*
X65519D2*
X70780D1*
X11024Y119655D2*
X50381D1*
X56133D2*
X63160D1*
X65490D2*
X70145D1*
X11024Y119023D2*
X47841D1*
X55498D2*
X62535D1*
X65023D2*
X69520D1*
X11024Y118392D2*
X47841D1*
X54873D2*
X61900D1*
X64398D2*
X68885D1*
X11024Y117760D2*
X47841D1*
X54724D2*
X61265D1*
X63763D2*
X68250D1*
X11024Y117128D2*
X47841D1*
X54724D2*
X60640D1*
X63128D2*
X67625D1*
X11024Y116497D2*
X47841D1*
X54724D2*
X60005D1*
X62503D2*
X66990D1*
X11024Y115865D2*
X50381D1*
X54724D2*
X59370D1*
X61868D2*
X66355D1*
X11024Y115233D2*
X50381D1*
X54724D2*
X58745D1*
X61233D2*
X65730D1*
X11024Y114602D2*
X50381D1*
X54724D2*
X58110D1*
X60608D2*
X65095D1*
X11024Y113970D2*
X50381D1*
X54724D2*
X57475D1*
X59973D2*
X64460D1*
X11024Y113338D2*
X50381D1*
X54724D2*
X56850D1*
X59338D2*
X63835D1*
X11024Y112707D2*
X50381D1*
X54724D2*
X56235D1*
X59418D2*
X63200D1*
X11024Y112075D2*
X50381D1*
X54724D2*
X56096D1*
X59497D2*
X62565D1*
X11024Y111443D2*
X22867D1*
X23818D2*
X33375D1*
X34901D2*
X50381D1*
X54724D2*
X56096D1*
X59338D2*
X61940D1*
X11024Y110812D2*
X22203D1*
X24483D2*
X32859D1*
X35417D2*
X50381D1*
X54724D2*
X56096D1*
X59338D2*
X61325D1*
X11024Y110180D2*
X22113D1*
X24572D2*
X32779D1*
X35496D2*
X50381D1*
X54724D2*
X56096D1*
X59338D2*
X61176D1*
X11024Y109548D2*
X22401D1*
X24284D2*
X33027D1*
X35248D2*
X50381D1*
X54724D2*
X56096D1*
X59338D2*
X61176D1*
X11024Y108917D2*
X16140D1*
X19115D2*
X22441D1*
X24244D2*
X45350D1*
X48325D2*
X50381D1*
X54724D2*
X56096D1*
X59338D2*
X61136D1*
X11024Y108285D2*
X16140D1*
X19115D2*
X22441D1*
X24244D2*
X45350D1*
X48325D2*
X50381D1*
X54724D2*
X56096D1*
X59338D2*
X60680D1*
X11024Y107653D2*
X16140D1*
X19115D2*
X22441D1*
X24244D2*
X33186D1*
X35089D2*
X43346D1*
X48325D2*
X50381D1*
X54724D2*
X56096D1*
X59338D2*
X60600D1*
X11024Y107022D2*
X16140D1*
X19115D2*
X22441D1*
X24244D2*
X32730D1*
X35546D2*
X42890D1*
X48325D2*
X50381D1*
X54724D2*
X56096D1*
X59338D2*
X60819D1*
X11024Y106390D2*
X16140D1*
X19115D2*
X22441D1*
X24244D2*
X32650D1*
X35625D2*
X42810D1*
X48325D2*
X50381D1*
X54724D2*
X56096D1*
X59338D2*
X61156D1*
X11024Y105758D2*
X16230D1*
X19026D2*
X22441D1*
X24244D2*
X32859D1*
X35417D2*
X43019D1*
X48236D2*
X50381D1*
X54724D2*
X56096D1*
X59338D2*
X60680D1*
X11024Y105127D2*
X16150D1*
X19105D2*
X22441D1*
X24244D2*
X33762D1*
X34509D2*
X43922D1*
X44669D2*
X45360D1*
X48315D2*
X50381D1*
X54724D2*
X56096D1*
X59338D2*
X60600D1*
X11024Y104495D2*
X16359D1*
X18897D2*
X22441D1*
X24244D2*
X45569D1*
X48107D2*
X50381D1*
X54724D2*
X56096D1*
X59338D2*
X60809D1*
X11024Y103863D2*
X16716D1*
X18539D2*
X22441D1*
X24244D2*
X45926D1*
X47749D2*
X50381D1*
X54724D2*
X56096D1*
X59338D2*
X61166D1*
X11024Y103232D2*
X16240D1*
X19016D2*
X21806D1*
X26864D2*
X45450D1*
X48226D2*
X50381D1*
X54724D2*
X56096D1*
X59338D2*
X60690D1*
X11024Y102600D2*
X16150D1*
X19105D2*
X21806D1*
X27320D2*
X45360D1*
X48315D2*
X50381D1*
X54724D2*
X56096D1*
X59338D2*
X60600D1*
X11024Y101968D2*
X16359D1*
X18897D2*
X21806D1*
X27410D2*
X45569D1*
X48107D2*
X50381D1*
X54724D2*
X56096D1*
X59338D2*
X60809D1*
X11024Y101337D2*
X16736D1*
X18520D2*
X21806D1*
X27211D2*
X36589D1*
X42481D2*
X45946D1*
X47730D2*
X50381D1*
X54724D2*
X56096D1*
X59338D2*
X61186D1*
X11024Y100705D2*
X16240D1*
X19016D2*
X21806D1*
X24879D2*
X25298D1*
X26467D2*
X35954D1*
X43116D2*
X45450D1*
X48226D2*
X50381D1*
X54724D2*
X56096D1*
X59338D2*
X60690D1*
X11024Y100073D2*
X16140D1*
X19115D2*
X22490D1*
X24195D2*
X25030D1*
X26735D2*
X27570D1*
X29275D2*
X30110D1*
X31815D2*
X32650D1*
X34355D2*
X35190D1*
X43741D2*
X45350D1*
X48325D2*
X50381D1*
X54724D2*
X56096D1*
X59338D2*
X60590D1*
X11024Y99442D2*
X16349D1*
X18907D2*
X21964D1*
X37421D2*
X39744D1*
X43929D2*
X45559D1*
X48117D2*
X50381D1*
X54724D2*
X56096D1*
X59338D2*
X60799D1*
X11024Y98810D2*
X17172D1*
X18083D2*
X21855D1*
X37530D2*
X39635D1*
X43929D2*
X45965D1*
X47710D2*
X50381D1*
X54724D2*
X56096D1*
X59338D2*
X61205D1*
X11024Y98178D2*
X22044D1*
X37341D2*
X39169D1*
X43929D2*
X45459D1*
X48216D2*
X50381D1*
X54724D2*
X56096D1*
X59338D2*
X60699D1*
X11024Y97547D2*
X22808D1*
X26417D2*
X27888D1*
X28957D2*
X30428D1*
X31497D2*
X32968D1*
X34037D2*
X35508D1*
X36577D2*
X38534D1*
X43929D2*
X45350D1*
X48325D2*
X50381D1*
X54724D2*
X56096D1*
X59338D2*
X60590D1*
X11024Y96915D2*
X24068D1*
X26566D2*
X37899D1*
X43929D2*
X45549D1*
X48126D2*
X50381D1*
X54724D2*
X56096D1*
X59338D2*
X60789D1*
X11024Y96283D2*
X24703D1*
X27191D2*
X37274D1*
X43929D2*
X45985D1*
X47690D2*
X49954D1*
X54724D2*
X56096D1*
X59338D2*
X61225D1*
X11024Y95652D2*
X25328D1*
X27826D2*
X36639D1*
X43929D2*
X45459D1*
X54724D2*
X56096D1*
X59338D2*
X60699D1*
X11024Y95020D2*
X25963D1*
X28054D2*
X36004D1*
X43929D2*
X45350D1*
X54724D2*
X56096D1*
X59338D2*
X60590D1*
X11024Y94388D2*
X26251D1*
X28054D2*
X35379D1*
X43929D2*
X45539D1*
X54357D2*
X56096D1*
X59338D2*
X60779D1*
X11024Y93757D2*
X26251D1*
X28054D2*
X34744D1*
X43929D2*
X46005D1*
X53732D2*
X56096D1*
X59338D2*
X61245D1*
X11024Y93125D2*
X26251D1*
X28054D2*
X34109D1*
X43929D2*
X45469D1*
X53097D2*
X56096D1*
X59338D2*
X60709D1*
X11024Y92493D2*
X21855D1*
X29245D2*
X30140D1*
X31785D2*
X32680D1*
X43929D2*
X45350D1*
X52462D2*
X56096D1*
X59338D2*
X60590D1*
X11024Y91862D2*
X21855D1*
X43929D2*
X45529D1*
X51837D2*
X56096D1*
X59338D2*
X60769D1*
X11024Y91230D2*
X21855D1*
X43929D2*
X46025D1*
X51202D2*
X56096D1*
X59338D2*
X61265D1*
X11024Y90598D2*
X21855D1*
X43929D2*
X45479D1*
X50567D2*
X56096D1*
X59338D2*
X60719D1*
X11024Y89967D2*
X21855D1*
X24830D2*
X25288D1*
X29017D2*
X30368D1*
X31557D2*
X32908D1*
X36637D2*
X37988D1*
X39177D2*
X40528D1*
X41717D2*
X42126D1*
X43929D2*
X45350D1*
X49942D2*
X56096D1*
X59338D2*
X60590D1*
X11024Y89335D2*
X26588D1*
X28689D2*
X33871D1*
X35674D2*
X42126D1*
X43929D2*
X45529D1*
X49287D2*
X55699D1*
X59338D2*
X60769D1*
X11024Y88703D2*
X26886D1*
X28689D2*
X33871D1*
X35674D2*
X42126D1*
X43929D2*
X46055D1*
X47620D2*
X55074D1*
X59338D2*
X61295D1*
X11024Y88072D2*
X26886D1*
X28689D2*
X33871D1*
X35674D2*
X36411D1*
X39484D2*
X42126D1*
X43929D2*
X45479D1*
X59348D2*
X60719D1*
X11024Y87440D2*
X26886D1*
X28689D2*
X33871D1*
X35674D2*
X36411D1*
X39484D2*
X42126D1*
X43929D2*
X45350D1*
X56302D2*
X57028D1*
X59507D2*
X60590D1*
X63565D2*
X64043D1*
X11024Y86808D2*
X26886D1*
X28689D2*
X33871D1*
X35674D2*
X36411D1*
X39484D2*
X41749D1*
X43929D2*
X44924D1*
X55657D2*
X57197D1*
X59338D2*
X60759D1*
X63396D2*
X64678D1*
X11024Y86177D2*
X26886D1*
X35674D2*
X36411D1*
X39484D2*
X41114D1*
X43612D2*
X44666D1*
X47601D2*
X57197D1*
X59338D2*
X61434D1*
X62722D2*
X65303D1*
X11024Y85545D2*
X21806D1*
X35674D2*
X36411D1*
X39484D2*
X40479D1*
X42977D2*
X44666D1*
X49387D2*
X57197D1*
X59338D2*
X65938D1*
X11024Y84913D2*
X21806D1*
X35674D2*
X39854D1*
X42342D2*
X44666D1*
X50012D2*
X57197D1*
X59775D2*
X66573D1*
X11024Y84282D2*
X21806D1*
X35367D2*
X39219D1*
X41717D2*
X44666D1*
X50647D2*
X57445D1*
X60410D2*
X67198D1*
X11024Y83650D2*
X21806D1*
X34732D2*
X38584D1*
X41082D2*
X44666D1*
X47511D2*
X48783D1*
X51282D2*
X58070D1*
X62821D2*
X67833D1*
X11024Y83018D2*
X21806D1*
X28382D2*
X31609D1*
X34097D2*
X38316D1*
X40447D2*
X44666D1*
X46469D2*
X49418D1*
X51907D2*
X58705D1*
X63426D2*
X68468D1*
X11024Y82387D2*
X25259D1*
X27757D2*
X30974D1*
X33472D2*
X38316D1*
X40119D2*
X44666D1*
X46469D2*
X50043D1*
X52542D2*
X59340D1*
X63565D2*
X69093D1*
X11024Y81755D2*
X24981D1*
X27122D2*
X30339D1*
X32837D2*
X35141D1*
X40119D2*
X44666D1*
X46469D2*
X50678D1*
X53177D2*
X59965D1*
X63406D2*
X69728D1*
X11024Y81123D2*
X24981D1*
X26784D2*
X29713D1*
X32202D2*
X35141D1*
X40119D2*
X40766D1*
X42749D2*
X44666D1*
X47551D2*
X51313D1*
X53454D2*
X61364D1*
X62791D2*
X70363D1*
X11024Y80492D2*
X19434D1*
X20901D2*
X24981D1*
X26784D2*
X29078D1*
X31577D2*
X35141D1*
X40119D2*
X40439D1*
X43076D2*
X44666D1*
X48176D2*
X51651D1*
X53454D2*
X60739D1*
X63416D2*
X70988D1*
X11024Y79860D2*
X18819D1*
X26784D2*
X28791D1*
X30942D2*
X35141D1*
X40119D2*
X40469D1*
X43046D2*
X44666D1*
X48325D2*
X51651D1*
X53454D2*
X60590D1*
X63565D2*
X71623D1*
X11024Y79228D2*
X18670D1*
X27271D2*
X28791D1*
X30594D2*
X35141D1*
X40119D2*
X40905D1*
X42610D2*
X44666D1*
X48176D2*
X51651D1*
X53454D2*
X60739D1*
X63952D2*
X72258D1*
X11024Y78597D2*
X18809D1*
X27419D2*
X28791D1*
X30594D2*
X38316D1*
X40119D2*
X44666D1*
X47561D2*
X51651D1*
X53454D2*
X61354D1*
X64587D2*
X72884D1*
X11024Y77965D2*
X19415D1*
X20921D2*
X21806D1*
X27281D2*
X28791D1*
X30594D2*
X38316D1*
X40119D2*
X44666D1*
X48166D2*
X51651D1*
X53454D2*
X60749D1*
X65222D2*
X73519D1*
X11024Y77333D2*
X21806D1*
X26715D2*
X28791D1*
X30594D2*
X38316D1*
X40119D2*
X44666D1*
X48325D2*
X51651D1*
X53454D2*
X60590D1*
X65847D2*
X74144D1*
X11024Y76702D2*
X28791D1*
X30594D2*
X38316D1*
X40119D2*
X44666D1*
X48186D2*
X51651D1*
X53454D2*
X60729D1*
X66482D2*
X74779D1*
X11024Y76070D2*
X28791D1*
X30594D2*
X35141D1*
X40119D2*
X40598D1*
X42917D2*
X44666D1*
X47581D2*
X51651D1*
X53454D2*
X61334D1*
X67117D2*
X75414D1*
X11024Y75438D2*
X28791D1*
X30594D2*
X35141D1*
X43106D2*
X44348D1*
X48156D2*
X51651D1*
X53454D2*
X60759D1*
X67742D2*
X76039D1*
X11024Y74807D2*
X28791D1*
X30912D2*
X35141D1*
X40119D2*
X40568D1*
X42947D2*
X43713D1*
X48325D2*
X51651D1*
X53454D2*
X60590D1*
X68377D2*
X76674D1*
X11024Y74175D2*
X29049D1*
X31547D2*
X35141D1*
X40119D2*
X41362D1*
X42153D2*
X43078D1*
X48186D2*
X51651D1*
X53454D2*
X60729D1*
X69012D2*
X76942D1*
X11024Y73543D2*
X29674D1*
X32172D2*
X35141D1*
X40119D2*
X42453D1*
X47611D2*
X51651D1*
X53454D2*
X61305D1*
X69637D2*
X76942D1*
X11024Y72912D2*
X30309D1*
X32807D2*
X38316D1*
X40119D2*
X41818D1*
X48156D2*
X51651D1*
X53454D2*
X60759D1*
X70272D2*
X76942D1*
X11024Y72280D2*
X30944D1*
X33442D2*
X38008D1*
X40119D2*
X41183D1*
X48325D2*
X51651D1*
X53454D2*
X60590D1*
X70907D2*
X76942D1*
X11024Y71648D2*
X14235D1*
X17210D2*
X22709D1*
X23977D2*
X31569D1*
X34067D2*
X37383D1*
X39881D2*
X40558D1*
X44961D2*
X45479D1*
X48196D2*
X51651D1*
X53454D2*
X60719D1*
X71532D2*
X76942D1*
X11024Y71017D2*
X14235D1*
X17210D2*
X22014D1*
X24671D2*
X25665D1*
X28640D2*
X29098D1*
X30287D2*
X31638D1*
X34702D2*
X37046D1*
X39246D2*
X39923D1*
X44326D2*
X46045D1*
X47630D2*
X51651D1*
X53454D2*
X61285D1*
X72167D2*
X76942D1*
X11024Y70385D2*
X14235D1*
X17210D2*
X19544D1*
X20792D2*
X21845D1*
X24840D2*
X25665D1*
X35039D2*
X37046D1*
X38849D2*
X39288D1*
X43691D2*
X45529D1*
X49287D2*
X51651D1*
X53454D2*
X60769D1*
X72802D2*
X76942D1*
X11024Y69753D2*
X14235D1*
X17210D2*
X18849D1*
X21486D2*
X21964D1*
X24721D2*
X25665D1*
X35039D2*
X37046D1*
X43294D2*
X45350D1*
X49932D2*
X51651D1*
X53454D2*
X60590D1*
X73427D2*
X76942D1*
X11024Y69122D2*
X14235D1*
X17210D2*
X18670D1*
X21665D2*
X22510D1*
X24175D2*
X25665D1*
X35039D2*
X37046D1*
X43294D2*
X45469D1*
X50567D2*
X51651D1*
X53454D2*
X60709D1*
X74062D2*
X76942D1*
X11024Y68490D2*
X14424D1*
X17021D2*
X18789D1*
X21704D2*
X25665D1*
X30505D2*
X31420D1*
X35039D2*
X37046D1*
X43294D2*
X46025D1*
X47650D2*
X48704D1*
X51202D2*
X51651D1*
X53454D2*
X61265D1*
X74697D2*
X76942D1*
X11024Y67858D2*
X14235D1*
X17210D2*
X19325D1*
X21704D2*
X32323D1*
X34811D2*
X37046D1*
X43294D2*
X45539D1*
X48136D2*
X49329D1*
X53454D2*
X60779D1*
X75322D2*
X76942D1*
X11024Y67227D2*
X14354D1*
X17091D2*
X19901D1*
X21704D2*
X31688D1*
X34186D2*
X36937D1*
X43294D2*
X45350D1*
X48325D2*
X49964D1*
X53454D2*
X60590D1*
X75957D2*
X76942D1*
X11024Y66595D2*
X14890D1*
X16555D2*
X19901D1*
X21704D2*
X25665D1*
X28640D2*
X29158D1*
X30227D2*
X31331D1*
X33551D2*
X36708D1*
X43294D2*
X45469D1*
X48206D2*
X50381D1*
X53454D2*
X60709D1*
X76314D2*
X76942D1*
X11024Y65963D2*
X14424D1*
X17021D2*
X19901D1*
X21704D2*
X25665D1*
X33531D2*
X36847D1*
X43294D2*
X46005D1*
X47670D2*
X50381D1*
X53454D2*
X61245D1*
X76314D2*
X76942D1*
X11024Y65332D2*
X14235D1*
X17210D2*
X19901D1*
X21704D2*
X25665D1*
X33720D2*
X38951D1*
X43294D2*
X45539D1*
X48136D2*
X50381D1*
X53454D2*
X60779D1*
X76314D2*
X76942D1*
X11024Y64700D2*
X14344D1*
X17101D2*
X19901D1*
X21704D2*
X25665D1*
X33611D2*
X38951D1*
X43294D2*
X45350D1*
X48325D2*
X50381D1*
X53454D2*
X60590D1*
X76314D2*
X76942D1*
X11024Y64068D2*
X14870D1*
X16575D2*
X19901D1*
X21704D2*
X25665D1*
X30545D2*
X31380D1*
X33085D2*
X38951D1*
X43294D2*
X45459D1*
X48216D2*
X50381D1*
X53454D2*
X60699D1*
X76314D2*
X76942D1*
X11024Y63437D2*
X14434D1*
X17011D2*
X19901D1*
X21704D2*
X38951D1*
X43294D2*
X45985D1*
X47690D2*
X50381D1*
X53454D2*
X61225D1*
X76314D2*
X76942D1*
X11024Y62805D2*
X14235D1*
X17210D2*
X19901D1*
X21704D2*
X35944D1*
X43294D2*
X45549D1*
X48126D2*
X50381D1*
X53454D2*
X60789D1*
X76314D2*
X76942D1*
X11024Y62173D2*
X14344D1*
X17101D2*
X19901D1*
X21704D2*
X35944D1*
X43294D2*
X45350D1*
X48325D2*
X50381D1*
X53454D2*
X60590D1*
X76314D2*
X76942D1*
X11024Y61542D2*
X14850D1*
X16595D2*
X19901D1*
X21704D2*
X22847D1*
X23838D2*
X26657D1*
X27648D2*
X35944D1*
X43294D2*
X45459D1*
X48216D2*
X50381D1*
X53454D2*
X60699D1*
X76314D2*
X76713D1*
X11024Y60910D2*
X14444D1*
X17002D2*
X19901D1*
X21704D2*
X22044D1*
X24641D2*
X25854D1*
X28451D2*
X35944D1*
X43294D2*
X45965D1*
X47710D2*
X50381D1*
X53454D2*
X61205D1*
X76314D2*
X76832D1*
X11024Y60278D2*
X14245D1*
X17200D2*
X19901D1*
X24840D2*
X25655D1*
X28650D2*
X35815D1*
X43294D2*
X45559D1*
X48117D2*
X50381D1*
X53454D2*
X60799D1*
X76314D2*
X76942D1*
X11024Y59647D2*
X14335D1*
X17111D2*
X19901D1*
X24741D2*
X25755D1*
X28551D2*
X35915D1*
X43294D2*
X45360D1*
X48315D2*
X50381D1*
X53454D2*
X60600D1*
X76314D2*
X76942D1*
X11024Y59015D2*
X14831D1*
X16615D2*
X19901D1*
X21704D2*
X22431D1*
X24254D2*
X26241D1*
X28064D2*
X36401D1*
X38224D2*
X38951D1*
X43294D2*
X45450D1*
X48226D2*
X50381D1*
X53454D2*
X58556D1*
X63466D2*
X63892D1*
X76314D2*
X76942D1*
X11024Y58383D2*
X14454D1*
X16992D2*
X19901D1*
X21704D2*
X38951D1*
X43294D2*
X45946D1*
X47730D2*
X50381D1*
X53454D2*
X58298D1*
X60777D2*
X61186D1*
X62970D2*
X64519D1*
X76314D2*
X76942D1*
X11024Y57752D2*
X14245D1*
X17200D2*
X19901D1*
X21704D2*
X36182D1*
X38443D2*
X38951D1*
X45031D2*
X50381D1*
X53454D2*
X58407D1*
X61303D2*
X65154D1*
X76314D2*
X76942D1*
X11024Y57120D2*
X14335D1*
X17111D2*
X19901D1*
X21704D2*
X30557D1*
X31368D2*
X35944D1*
X45031D2*
X50381D1*
X53454D2*
X59191D1*
X61938D2*
X65621D1*
X76314D2*
X76942D1*
X11024Y56488D2*
X14811D1*
X16634D2*
X19524D1*
X22082D2*
X26737D1*
X32242D2*
X36044D1*
X38582D2*
X38951D1*
X45031D2*
X50381D1*
X53454D2*
X60064D1*
X62563D2*
X65621D1*
X76314D2*
X76942D1*
X11024Y55857D2*
X19305D1*
X22300D2*
X26032D1*
X32460D2*
X36609D1*
X38016D2*
X38951D1*
X45031D2*
X50381D1*
X53454D2*
X60699D1*
X63198D2*
X65621D1*
X11024Y55225D2*
X19395D1*
X22211D2*
X25397D1*
X32371D2*
X38732D1*
X43294D2*
X50381D1*
X53454D2*
X61334D1*
X63833D2*
X65621D1*
X11024Y54593D2*
X19861D1*
X21744D2*
X24772D1*
X27271D2*
X30021D1*
X31904D2*
X38107D1*
X43294D2*
X50381D1*
X53454D2*
X61960D1*
X64458D2*
X65621D1*
X11024Y53962D2*
X24137D1*
X26636D2*
X37472D1*
X43294D2*
X50381D1*
X53454D2*
X62595D1*
X65093D2*
X65621D1*
X11024Y53330D2*
X23502D1*
X26001D2*
X36837D1*
X43294D2*
X50172D1*
X53454D2*
X63230D1*
X11024Y52698D2*
X16775D1*
X19750D2*
X22877D1*
X25376D2*
X36212D1*
X43136D2*
X49547D1*
X53504D2*
X63855D1*
X11024Y52067D2*
X16527D1*
X19998D2*
X21339D1*
X24741D2*
X35577D1*
X42521D2*
X48912D1*
X53792D2*
X64351D1*
X11024Y51435D2*
X16567D1*
X19958D2*
X21339D1*
X24106D2*
X34942D1*
X41886D2*
X48277D1*
X50776D2*
X51413D1*
X53693D2*
X64351D1*
X11024Y50803D2*
X16537D1*
X19988D2*
X21339D1*
X24076D2*
X34317D1*
X41261D2*
X47652D1*
X50151D2*
X52097D1*
X53008D2*
X64351D1*
X11024Y50172D2*
X16626D1*
X19899D2*
X21339D1*
X24076D2*
X33682D1*
X40626D2*
X47017D1*
X49516D2*
X64351D1*
X11024Y49540D2*
X16537D1*
X19988D2*
X21806D1*
X23609D2*
X33047D1*
X39991D2*
X46382D1*
X48881D2*
X64351D1*
X11024Y48908D2*
X16626D1*
X19899D2*
X21806D1*
X23609D2*
X32422D1*
X39365D2*
X45757D1*
X48255D2*
X64351D1*
X11024Y48277D2*
X17291D1*
X19234D2*
X21806D1*
X23609D2*
X31787D1*
X38730D2*
X44636D1*
X49357D2*
X57018D1*
X59517D2*
X64351D1*
X11024Y47645D2*
X19553D1*
X23798D2*
X27689D1*
X30426D2*
X31152D1*
X38095D2*
X44338D1*
X49595D2*
X56780D1*
X59755D2*
X64351D1*
X11024Y47013D2*
X19315D1*
X24066D2*
X27689D1*
X37470D2*
X44418D1*
X49535D2*
X56840D1*
X59695D2*
X64351D1*
X11024Y46382D2*
X19375D1*
X23996D2*
X27689D1*
X36835D2*
X45053D1*
X46083D2*
X47116D1*
X49099D2*
X57276D1*
X59259D2*
X64351D1*
X11024Y45750D2*
X19801D1*
X23500D2*
X27689D1*
X36200D2*
X64351D1*
X11024Y45118D2*
X28632D1*
X35575D2*
X51948D1*
X54427D2*
X64351D1*
X11024Y44487D2*
X27997D1*
X34940D2*
X51700D1*
X54675D2*
X64351D1*
X11024Y43855D2*
X27362D1*
X34305D2*
X51760D1*
X54615D2*
X64351D1*
X11024Y43223D2*
X26737D1*
X33680D2*
X52177D1*
X54199D2*
X56880D1*
X59656D2*
X64351D1*
X11024Y42592D2*
X26102D1*
X33045D2*
X56552D1*
X59983D2*
X64351D1*
X11024Y41960D2*
X25467D1*
X32410D2*
X56612D1*
X59924D2*
X60848D1*
X63307D2*
X64351D1*
X11024Y41328D2*
X24653D1*
X31864D2*
X34813D1*
X37272D2*
X56552D1*
X59983D2*
X60590D1*
X63565D2*
X64351D1*
X11024Y40697D2*
X24395D1*
X31864D2*
X34555D1*
X37530D2*
X56612D1*
X59924D2*
X60640D1*
X63515D2*
X64351D1*
X11024Y40065D2*
X24445D1*
X31864D2*
X34377D1*
X37480D2*
X46094D1*
X48851D2*
X56532D1*
X60003D2*
X61047D1*
X63108D2*
X64351D1*
X11024Y39433D2*
X24842D1*
X26923D2*
X27521D1*
X31864D2*
X33742D1*
X37083D2*
X45757D1*
X49188D2*
X56552D1*
X59983D2*
X64351D1*
X11024Y38802D2*
X27521D1*
X31864D2*
X33107D1*
X35605D2*
X45817D1*
X49129D2*
X57068D1*
X59467D2*
X64351D1*
X11024Y38170D2*
X27521D1*
X31864D2*
X32630D1*
X34970D2*
X45757D1*
X49188D2*
X60868D1*
X63287D2*
X64351D1*
X11024Y37538D2*
X19593D1*
X22012D2*
X27521D1*
X31864D2*
X32601D1*
X34404D2*
X45807D1*
X49138D2*
X60600D1*
X63555D2*
X64351D1*
X11024Y36907D2*
X19325D1*
X22280D2*
X27521D1*
X31864D2*
X32601D1*
X34404D2*
X45737D1*
X49208D2*
X60640D1*
X63515D2*
X64351D1*
X11024Y36275D2*
X19365D1*
X22240D2*
X27521D1*
X31864D2*
X32601D1*
X34404D2*
X45757D1*
X49188D2*
X61027D1*
X63128D2*
X64351D1*
X11024Y35643D2*
X19742D1*
X21863D2*
X27521D1*
X31864D2*
X32601D1*
X34404D2*
X46253D1*
X48692D2*
X64351D1*
X11024Y35012D2*
X27521D1*
X31864D2*
X32601D1*
X34404D2*
X51988D1*
X54387D2*
X64351D1*
X11024Y34380D2*
X27521D1*
X31864D2*
X32601D1*
X34404D2*
X51710D1*
X54665D2*
X64351D1*
X11024Y33748D2*
X13084D1*
X15821D2*
X19772D1*
X21833D2*
X24643D1*
X27122D2*
X27521D1*
X31864D2*
X32601D1*
X34404D2*
X51740D1*
X54635D2*
X64351D1*
X11024Y33117D2*
X13084D1*
X15821D2*
X19454D1*
X22151D2*
X24366D1*
X31864D2*
X32601D1*
X34404D2*
X46283D1*
X48662D2*
X52117D1*
X54258D2*
X64351D1*
X11024Y32485D2*
X13084D1*
X15821D2*
X19484D1*
X22121D2*
X24395D1*
X31864D2*
X32601D1*
X34404D2*
X45995D1*
X48950D2*
X64351D1*
X11024Y31853D2*
X13084D1*
X15821D2*
X19911D1*
X21695D2*
X24752D1*
X27013D2*
X27521D1*
X31864D2*
X32601D1*
X34404D2*
X46025D1*
X48920D2*
X64351D1*
X11024Y31222D2*
X24346D1*
X31864D2*
X32601D1*
X34404D2*
X46392D1*
X48553D2*
X64351D1*
X11024Y30590D2*
X24346D1*
X31864D2*
X32601D1*
X34404D2*
X64440D1*
X11024Y29958D2*
X24346D1*
X31864D2*
X32601D1*
X34404D2*
X65006D1*
X11024Y29327D2*
X24346D1*
X31864D2*
X32601D1*
X34404D2*
X57088D1*
X59447D2*
X65641D1*
X11024Y28695D2*
X19434D1*
X22171D2*
X27521D1*
X31864D2*
X32601D1*
X34404D2*
X56800D1*
X59735D2*
X66276D1*
X11024Y28063D2*
X19434D1*
X22171D2*
X27521D1*
X31864D2*
X32601D1*
X34404D2*
X56810D1*
X59725D2*
X66901D1*
X11024Y27432D2*
X19434D1*
X22171D2*
X27521D1*
X31864D2*
X32601D1*
X34404D2*
X57167D1*
X59368D2*
X67536D1*
X11024Y26800D2*
X19434D1*
X22171D2*
X27521D1*
X31864D2*
X32601D1*
X34404D2*
X68171D1*
X11024Y26168D2*
X27521D1*
X31864D2*
X32601D1*
X34404D2*
X68796D1*
X11024Y25537D2*
X27521D1*
X31864D2*
X32601D1*
X34404D2*
X69431D1*
X11024Y24905D2*
X24395D1*
X34643D2*
X70066D1*
X11024Y24273D2*
X24395D1*
X34960D2*
X70691D1*
X11024Y23642D2*
X24395D1*
X34950D2*
X71326D1*
X11024Y23010D2*
X24395D1*
X29533D2*
X29854D1*
X32073D2*
X32394D1*
X34613D2*
X71961D1*
X11024Y22378D2*
X72586D1*
X11024Y21747D2*
X73221D1*
X11024Y21115D2*
X73856D1*
X11024Y20483D2*
X74481D1*
X11024Y19852D2*
X75116D1*
X11024Y19220D2*
X76942D1*
X11024Y18588D2*
X76942D1*
X11024Y17957D2*
X76942D1*
X11024Y17325D2*
X76942D1*
X11024Y16693D2*
X76942D1*
X11024Y16062D2*
X76942D1*
X11024Y15430D2*
X76942D1*
X11024Y14798D2*
X76942D1*
X11024Y14167D2*
X76942D1*
X11024Y13535D2*
X76942D1*
X11024Y12903D2*
X76942D1*
X11024Y12272D2*
X75037D1*
X11024Y11640D2*
X75037D1*
X11024Y11008D2*
X75037D1*
X27322Y78273D2*
X27221Y77972D1*
X27058Y77700D1*
X26841Y77469D1*
X26580Y77290D1*
X26286Y77171D1*
X25974Y77117D1*
X25657Y77132D1*
X25351Y77214D1*
X25070Y77359D1*
X24820Y77569D1*
X24816Y77115D1*
X21870D1*
Y80061D1*
X24816D1*
Y79594D1*
X25039Y79794D1*
X25045Y81763D1*
X25104Y82073D1*
X25290Y82355D1*
X25774Y82839D1*
X25657Y82847D1*
X25351Y82929D1*
X25070Y83074D1*
X24820Y83284D1*
X24816Y82830D1*
X21870D1*
Y85776D1*
X24816D1*
Y85309D1*
X25030Y85504D1*
X25307Y85658D1*
X25610Y85750D1*
X25926Y85775D1*
X26240Y85732D1*
X26537Y85622D1*
X26804Y85452D1*
X26951Y85305D1*
X26950Y89035D1*
X26560Y89425D1*
X26381Y89696D1*
X26319Y89934D1*
X25896Y89865D1*
X25580Y89897D1*
X25280Y89998D1*
X25010Y90164D1*
X24767Y90409D1*
X24766Y89865D1*
X21920D1*
Y92711D1*
X24766D1*
Y92165D1*
X24970Y92379D1*
X25234Y92554D1*
X25530Y92666D1*
X25844Y92710D1*
X26160Y92683D1*
X26320Y92633D1*
X26315Y94730D1*
X23564Y97481D1*
X23356Y97465D1*
X23040Y97497D1*
X22740Y97598D1*
X22470Y97764D1*
X22243Y97985D1*
X22070Y98250D1*
X21961Y98548D1*
X21920Y98862D1*
X21949Y99177D1*
X22048Y99478D1*
X22211Y99750D1*
X22430Y99979D1*
X22694Y100154D1*
X22990Y100266D1*
X23304Y100310D1*
X23620Y100283D1*
X23922Y100188D1*
X24195Y100027D1*
X24426Y99810D1*
X24614Y99520D1*
X24751Y99750D1*
X24970Y99979D1*
X25234Y100154D1*
X25530Y100266D1*
X25844Y100310D1*
X26160Y100283D1*
X26462Y100188D1*
X26735Y100027D1*
X26966Y99810D1*
X27154Y99520D1*
X27291Y99750D1*
X27510Y99979D1*
X27774Y100154D1*
X28070Y100266D1*
X28384Y100310D1*
X28700Y100283D1*
X29002Y100188D1*
X29275Y100027D1*
X29506Y99810D1*
X29694Y99520D1*
X29831Y99750D1*
X30050Y99979D1*
X30314Y100154D1*
X30610Y100266D1*
X30924Y100310D1*
X31240Y100283D1*
X31542Y100188D1*
X31815Y100027D1*
X32046Y99810D1*
X32234Y99520D1*
X32371Y99750D1*
X32590Y99979D1*
X32854Y100154D1*
X33150Y100266D1*
X33464Y100310D1*
X33780Y100283D1*
X34082Y100188D1*
X34355Y100027D1*
X34586Y99810D1*
X34774Y99520D1*
X34911Y99750D1*
X35130Y99979D1*
X35394Y100154D1*
X35514Y100200D1*
X36720Y101405D1*
X36981Y101582D1*
X37313Y101651D1*
X41758D1*
X42068Y101591D1*
X42350Y101405D1*
X43620Y100135D1*
X43797Y99874D1*
X43866Y99543D1*
Y86843D1*
X43806Y86533D1*
X43620Y86250D1*
X40049Y82679D1*
X40056Y77953D1*
Y72238D1*
X39996Y71928D1*
X39810Y71645D1*
X38779Y70614D1*
X38786Y67346D1*
X38896Y67226D1*
X39016Y67009D1*
X39015Y69698D1*
X39074Y70008D1*
X39260Y70290D1*
X44725Y75756D1*
X44730Y86208D1*
X44789Y86518D1*
X44975Y86800D1*
X45431Y87256D1*
X45415Y87452D1*
X45444Y87767D1*
X45543Y88068D1*
X45706Y88340D1*
X45925Y88569D1*
X46198Y88748D1*
X45965Y88894D1*
X45738Y89115D1*
X45565Y89380D1*
X45456Y89678D1*
X45415Y89992D1*
X45444Y90307D1*
X45543Y90608D1*
X45706Y90880D1*
X45925Y91109D1*
X46198Y91288D1*
X45965Y91434D1*
X45738Y91655D1*
X45565Y91920D1*
X45456Y92218D1*
X45415Y92532D1*
X45444Y92847D1*
X45543Y93148D1*
X45706Y93420D1*
X45925Y93649D1*
X46198Y93828D1*
X45965Y93974D1*
X45738Y94195D1*
X45565Y94460D1*
X45456Y94758D1*
X45415Y95072D1*
X45444Y95387D1*
X45543Y95688D1*
X45706Y95960D1*
X45925Y96189D1*
X46198Y96368D1*
X45965Y96514D1*
X45738Y96735D1*
X45565Y97000D1*
X45456Y97298D1*
X45415Y97612D1*
X45444Y97927D1*
X45543Y98228D1*
X45706Y98500D1*
X45925Y98729D1*
X46198Y98908D1*
X45965Y99054D1*
X45738Y99275D1*
X45565Y99540D1*
X45456Y99838D1*
X45415Y100152D1*
X45444Y100467D1*
X45543Y100768D1*
X45706Y101040D1*
X45925Y101269D1*
X46198Y101448D1*
X45965Y101594D1*
X45738Y101815D1*
X45565Y102080D1*
X45456Y102378D1*
X45415Y102692D1*
X45444Y103007D1*
X45543Y103308D1*
X45706Y103580D1*
X45925Y103809D1*
X46198Y103988D1*
X45965Y104134D1*
X45738Y104355D1*
X45565Y104620D1*
X45456Y104918D1*
X45415Y105232D1*
X45444Y105547D1*
X45521Y105782D1*
X45428Y105644D1*
X45206Y105417D1*
X44941Y105245D1*
X44643Y105135D1*
X44329Y105093D1*
X44014Y105121D1*
X43712Y105217D1*
X43439Y105378D1*
X43207Y105594D1*
X43029Y105856D1*
X42913Y106151D1*
X42864Y106464D1*
X42885Y106780D1*
X42975Y107084D1*
X43129Y107361D1*
X43340Y107597D1*
X43598Y107781D1*
X43891Y107904D1*
X44202Y107960D1*
X44519Y107946D1*
X44825Y107862D1*
X45105Y107714D1*
X45345Y107508D1*
X45411Y107421D1*
X45415Y109221D1*
X48261D1*
Y106375D1*
X47715D1*
X47921Y106180D1*
X48098Y105918D1*
X48213Y105623D1*
X48261Y105258D1*
X48225Y104943D1*
X48121Y104643D1*
X47954Y104375D1*
X47731Y104150D1*
X47472Y103985D1*
X47690Y103857D1*
X47921Y103640D1*
X48098Y103378D1*
X48213Y103083D1*
X48261Y102718D1*
X48225Y102403D1*
X48121Y102103D1*
X47954Y101835D1*
X47731Y101610D1*
X47472Y101445D1*
X47690Y101317D1*
X47921Y101100D1*
X48098Y100838D1*
X48213Y100543D1*
X48261Y100178D1*
X48225Y99863D1*
X48121Y99563D1*
X47954Y99295D1*
X47731Y99070D1*
X47472Y98905D1*
X47690Y98777D1*
X47921Y98560D1*
X48098Y98298D1*
X48213Y98003D1*
X48261Y97638D1*
X48225Y97323D1*
X48121Y97023D1*
X47954Y96755D1*
X47731Y96530D1*
X47472Y96365D1*
X47690Y96237D1*
X47921Y96020D1*
X47982Y95930D1*
X49665Y95936D1*
X50451Y96722D1*
X50445Y101130D1*
Y116479D1*
X47905Y116485D1*
Y119431D1*
X50454D1*
X50445Y120498D1*
Y121133D1*
X50504Y121443D1*
X50690Y121725D1*
X51848Y122883D1*
X51615Y122917D1*
X51315Y123018D1*
X51045Y123184D1*
X50818Y123405D1*
X50645Y123670D1*
X50536Y123968D1*
X50495Y124282D1*
X50524Y124597D1*
X50623Y124898D1*
X50786Y125170D1*
X51079Y125448D1*
X51080Y126848D1*
X51139Y127158D1*
X51325Y127440D1*
X52595Y128710D1*
X52856Y128887D1*
X53188Y128956D1*
X62713D1*
X63023Y128896D1*
X63305Y128710D1*
X65210Y126805D1*
X65387Y126544D1*
X65456Y126213D1*
Y119863D1*
X65396Y119553D1*
X65210Y119270D1*
X59057Y113117D1*
X59216Y112946D1*
X59369Y112669D1*
X59443Y112361D1*
X59449Y112243D1*
X59406Y111929D1*
X59271Y111608D1*
Y88103D1*
X59369Y87904D1*
X59443Y87596D1*
X59449Y87478D1*
X59406Y87164D1*
X59271Y86843D1*
Y85344D1*
X61145Y83479D1*
X61429Y83664D1*
X61725Y83776D1*
X62039Y83820D1*
X62355Y83793D1*
X62657Y83698D1*
X62930Y83537D1*
X63161Y83320D1*
X63338Y83058D1*
X63453Y82763D1*
X63501Y82398D1*
X63465Y82083D1*
X63361Y81783D1*
X63194Y81515D1*
X62971Y81290D1*
X62712Y81125D1*
X62930Y80997D1*
X63161Y80780D1*
X63338Y80518D1*
X63453Y80223D1*
X63501Y79858D1*
X63478Y79651D1*
X66711Y76409D1*
X76005Y67115D1*
X76182Y66854D1*
X76251Y66523D1*
Y56194D1*
X76515Y56262D1*
X76831Y56264D1*
X76994Y56221D1*
X77000Y59855D1*
Y60738D1*
X76891Y60925D1*
X76792Y61226D1*
X76776Y61542D1*
X76844Y61851D1*
X76999Y62138D1*
X77000Y74549D1*
X63981Y87564D1*
X63621Y87623D1*
X63487Y87687D1*
X63501Y87478D1*
X63465Y87163D1*
X63361Y86863D1*
X63194Y86595D1*
X62971Y86370D1*
X62703Y86199D1*
X62405Y86093D1*
X62091Y86055D1*
X61775Y86087D1*
X61475Y86188D1*
X61205Y86354D1*
X60978Y86575D1*
X60805Y86840D1*
X60696Y87138D1*
X60655Y87452D1*
X60684Y87767D1*
X60783Y88068D1*
X60946Y88340D1*
X61165Y88569D1*
X61438Y88748D1*
X61205Y88894D1*
X60978Y89115D1*
X60805Y89380D1*
X60696Y89678D1*
X60655Y89992D1*
X60684Y90307D1*
X60783Y90608D1*
X60946Y90880D1*
X61165Y91109D1*
X61438Y91288D1*
X61205Y91434D1*
X60978Y91655D1*
X60805Y91920D1*
X60696Y92218D1*
X60655Y92532D1*
X60684Y92847D1*
X60783Y93148D1*
X60946Y93420D1*
X61165Y93649D1*
X61438Y93828D1*
X61205Y93974D1*
X60978Y94195D1*
X60805Y94460D1*
X60696Y94758D1*
X60655Y95072D1*
X60684Y95387D1*
X60783Y95688D1*
X60946Y95960D1*
X61165Y96189D1*
X61438Y96368D1*
X61205Y96514D1*
X60978Y96735D1*
X60805Y97000D1*
X60696Y97298D1*
X60655Y97612D1*
X60684Y97927D1*
X60783Y98228D1*
X60946Y98500D1*
X61165Y98729D1*
X61438Y98908D1*
X61205Y99054D1*
X60978Y99275D1*
X60805Y99540D1*
X60696Y99838D1*
X60655Y100152D1*
X60684Y100467D1*
X60783Y100768D1*
X60946Y101040D1*
X61165Y101269D1*
X61438Y101448D1*
X61205Y101594D1*
X60978Y101815D1*
X60805Y102080D1*
X60696Y102378D1*
X60655Y102692D1*
X60684Y103007D1*
X60783Y103308D1*
X60946Y103580D1*
X61165Y103809D1*
X61438Y103988D1*
X61205Y104134D1*
X60978Y104355D1*
X60805Y104620D1*
X60696Y104918D1*
X60655Y105232D1*
X60684Y105547D1*
X60783Y105848D1*
X60946Y106120D1*
X61165Y106349D1*
X61438Y106528D1*
X61205Y106674D1*
X60978Y106895D1*
X60805Y107160D1*
X60696Y107458D1*
X60655Y107772D1*
X60684Y108087D1*
X60783Y108388D1*
X60946Y108660D1*
X61239Y108938D1*
Y110338D1*
X61299Y110648D1*
X61485Y110930D1*
X76997Y126442D1*
X77000Y140500D1*
X10960D1*
Y10960D1*
X75095D1*
Y12548D1*
X75251Y12815D1*
X75413Y12865D1*
X77000D1*
Y19330D1*
X76048D1*
X75738Y19389D1*
X75455Y19575D1*
X64660Y30370D1*
X64483Y30631D1*
X64414Y30963D1*
Y52205D1*
X59531Y57089D1*
X59176Y57143D1*
X58891Y57279D1*
X58651Y57487D1*
X58476Y57750D1*
X58377Y58051D1*
X58361Y58367D1*
X58429Y58676D1*
X58578Y58956D1*
X58795Y59186D1*
X59065Y59350D1*
X59370Y59437D1*
X59686Y59439D1*
X59992Y59358D1*
X60265Y59198D1*
X60486Y58971D1*
X60639Y58694D1*
X60719Y58271D1*
X65680Y53311D1*
X65684Y57285D1*
X63495Y59474D1*
X63465Y59223D1*
X63361Y58923D1*
X63194Y58655D1*
X62971Y58430D1*
X62703Y58259D1*
X62405Y58153D1*
X62091Y58115D1*
X61775Y58147D1*
X61475Y58248D1*
X61205Y58414D1*
X60978Y58635D1*
X60805Y58900D1*
X60696Y59198D1*
X60655Y59512D1*
X60684Y59827D1*
X60783Y60128D1*
X60946Y60400D1*
X61165Y60629D1*
X61438Y60808D1*
X61205Y60954D1*
X60978Y61175D1*
X60805Y61440D1*
X60696Y61738D1*
X60655Y62052D1*
X60684Y62367D1*
X60783Y62668D1*
X60946Y62940D1*
X61165Y63169D1*
X61438Y63348D1*
X61205Y63494D1*
X60978Y63715D1*
X60805Y63980D1*
X60696Y64278D1*
X60655Y64592D1*
X60684Y64907D1*
X60783Y65208D1*
X60946Y65480D1*
X61165Y65709D1*
X61438Y65888D1*
X61205Y66034D1*
X60978Y66255D1*
X60805Y66520D1*
X60696Y66818D1*
X60655Y67132D1*
X60684Y67447D1*
X60783Y67748D1*
X60946Y68020D1*
X61165Y68249D1*
X61438Y68428D1*
X61205Y68574D1*
X60978Y68795D1*
X60805Y69060D1*
X60696Y69358D1*
X60655Y69672D1*
X60684Y69987D1*
X60783Y70288D1*
X60946Y70560D1*
X61165Y70789D1*
X61438Y70968D1*
X61205Y71114D1*
X60978Y71335D1*
X60805Y71600D1*
X60696Y71898D1*
X60655Y72212D1*
X60684Y72527D1*
X60783Y72828D1*
X60946Y73100D1*
X61165Y73329D1*
X61438Y73508D1*
X61205Y73654D1*
X60978Y73875D1*
X60805Y74140D1*
X60696Y74438D1*
X60655Y74752D1*
X60684Y75067D1*
X60783Y75368D1*
X60946Y75640D1*
X61165Y75869D1*
X61438Y76048D1*
X61205Y76194D1*
X60978Y76415D1*
X60805Y76680D1*
X60696Y76978D1*
X60655Y77292D1*
X60684Y77607D1*
X60783Y77908D1*
X60946Y78180D1*
X61165Y78409D1*
X61438Y78588D1*
X61205Y78734D1*
X60978Y78955D1*
X60805Y79220D1*
X60696Y79518D1*
X60655Y79832D1*
X60684Y80147D1*
X60783Y80448D1*
X60946Y80720D1*
X61165Y80949D1*
X61438Y81128D1*
X61205Y81274D1*
X61084Y81391D1*
X60808Y81394D1*
X60495Y81444D1*
X60207Y81596D1*
X59649Y82137D1*
X57558Y84228D1*
X57373Y84484D1*
X57276Y84795D1*
X57264Y85573D1*
Y86853D1*
X57107Y87261D1*
X57091Y87577D1*
X57159Y87886D1*
X57264Y88113D1*
Y88460D1*
X55685Y86885D1*
X55424Y86708D1*
X55093Y86639D1*
X47979D1*
X47731Y86370D1*
X47472Y86205D1*
X47690Y86077D1*
X47921Y85860D1*
X47982Y85770D1*
X48743Y85776D1*
X49053Y85716D1*
X49335Y85530D1*
X53145Y81720D1*
X53322Y81459D1*
X53391Y81128D1*
Y52741D1*
X53501Y52621D1*
X53654Y52344D1*
X53728Y52036D1*
X53734Y51918D1*
X53691Y51604D1*
X53567Y51313D1*
X53370Y51065D1*
X53114Y50879D1*
X52818Y50767D1*
X52503Y50738D1*
X52191Y50793D1*
X51906Y50929D1*
X51666Y51137D1*
X51491Y51400D1*
X51392Y51701D1*
X51376Y52017D1*
X51399Y52123D1*
X48192Y48912D1*
X48635Y48807D1*
X48915Y48659D1*
X49155Y48453D1*
X49345Y48199D1*
X49474Y47910D1*
X49543Y47473D1*
X49508Y47158D1*
X49404Y46858D1*
X49238Y46589D1*
X49016Y46362D1*
X48751Y46190D1*
X48453Y46080D1*
X48139Y46038D1*
X47824Y46066D1*
X47522Y46162D1*
X47249Y46323D1*
X47017Y46539D1*
X46839Y46801D1*
X46709Y47184D1*
X46582Y46868D1*
X46385Y46620D1*
X46129Y46434D1*
X45833Y46322D1*
X45518Y46293D1*
X45206Y46348D1*
X44921Y46484D1*
X44681Y46692D1*
X44506Y46955D1*
X44407Y47256D1*
X44391Y47572D1*
X44459Y47881D1*
X44608Y48161D1*
X44825Y48391D1*
X45095Y48555D1*
X45400Y48642D1*
X45548Y48643D1*
X50440Y53531D1*
X50445Y66810D1*
X48396Y68859D1*
X47979Y68860D1*
X47731Y68590D1*
X47472Y68425D1*
X47690Y68297D1*
X47921Y68080D1*
X48098Y67818D1*
X48213Y67523D1*
X48261Y67158D1*
X48225Y66843D1*
X48121Y66543D1*
X47954Y66275D1*
X47731Y66050D1*
X47472Y65885D1*
X47690Y65757D1*
X47921Y65540D1*
X48098Y65278D1*
X48213Y64983D1*
X48261Y64618D1*
X48225Y64303D1*
X48121Y64003D1*
X47954Y63735D1*
X47731Y63510D1*
X47472Y63345D1*
X47690Y63217D1*
X47921Y63000D1*
X48098Y62738D1*
X48213Y62443D1*
X48261Y62078D1*
X48225Y61763D1*
X48121Y61463D1*
X47954Y61195D1*
X47731Y60970D1*
X47472Y60805D1*
X47690Y60677D1*
X47921Y60460D1*
X48098Y60198D1*
X48213Y59903D1*
X48261Y59538D1*
X48225Y59223D1*
X48121Y58923D1*
X47954Y58655D1*
X47731Y58430D1*
X47463Y58259D1*
X47165Y58153D1*
X46851Y58115D1*
X46535Y58147D1*
X46235Y58248D1*
X45965Y58414D1*
X45738Y58635D1*
X45565Y58900D1*
X45456Y59198D1*
X45415Y59512D1*
X45444Y59827D1*
X45543Y60128D1*
X45706Y60400D1*
X45925Y60629D1*
X46198Y60808D1*
X45965Y60954D1*
X45738Y61175D1*
X45565Y61440D1*
X45456Y61738D1*
X45415Y62052D1*
X45444Y62367D1*
X45543Y62668D1*
X45706Y62940D1*
X45925Y63169D1*
X46198Y63348D1*
X45965Y63494D1*
X45738Y63715D1*
X45565Y63980D1*
X45456Y64278D1*
X45415Y64592D1*
X45444Y64907D1*
X45543Y65208D1*
X45706Y65480D1*
X45925Y65709D1*
X46198Y65888D1*
X45965Y66034D1*
X45738Y66255D1*
X45565Y66520D1*
X45456Y66818D1*
X45415Y67132D1*
X45444Y67447D1*
X45543Y67748D1*
X45706Y68020D1*
X45925Y68249D1*
X46198Y68428D1*
X45965Y68574D1*
X45738Y68795D1*
X45565Y69060D1*
X45456Y69358D1*
X45415Y69672D1*
X45444Y69987D1*
X45543Y70288D1*
X45706Y70560D1*
X45925Y70789D1*
X46198Y70968D1*
X45965Y71114D1*
X45738Y71335D1*
X45565Y71600D1*
X45456Y71898D1*
X45410Y72164D1*
X43228Y69982D1*
X43231Y58297D1*
X44577Y58306D1*
X44971D1*
Y55690D1*
X43234D1*
X43231Y53188D1*
X43171Y52878D1*
X42985Y52595D1*
X31795Y41405D1*
X31801Y34455D1*
X31815Y25117D1*
X32046Y24900D1*
X32234Y24610D1*
X32371Y24840D1*
X32664Y25118D1*
X32665Y37948D1*
X32724Y38258D1*
X32910Y38540D1*
X34629Y40259D1*
X34609Y40424D1*
X34630Y40740D1*
X34720Y41044D1*
X34874Y41321D1*
X35085Y41557D1*
X35343Y41741D1*
X35636Y41864D1*
X35947Y41920D1*
X36264Y41906D1*
X36570Y41822D1*
X36850Y41674D1*
X37090Y41468D1*
X37280Y41214D1*
X37409Y40925D1*
X37478Y40488D1*
X37443Y40173D1*
X37339Y39873D1*
X37173Y39604D1*
X36951Y39377D1*
X36686Y39205D1*
X36388Y39095D1*
X36074Y39053D1*
X35808Y39076D1*
X34341Y37601D1*
X34355Y25117D1*
X34586Y24900D1*
X34763Y24638D1*
X34878Y24343D1*
X34926Y23978D1*
X34890Y23663D1*
X34786Y23363D1*
X34619Y23095D1*
X34396Y22870D1*
X34128Y22699D1*
X33830Y22593D1*
X33516Y22555D1*
X33200Y22587D1*
X32900Y22688D1*
X32630Y22854D1*
X32403Y23075D1*
X32236Y23332D1*
X32079Y23095D1*
X31856Y22870D1*
X31588Y22699D1*
X31290Y22593D1*
X30976Y22555D1*
X30660Y22587D1*
X30360Y22688D1*
X30090Y22854D1*
X29863Y23075D1*
X29696Y23332D1*
X29539Y23095D1*
X29316Y22870D1*
X29048Y22699D1*
X28750Y22593D1*
X28436Y22555D1*
X28120Y22587D1*
X27820Y22688D1*
X27550Y22854D1*
X27307Y23099D1*
X27306Y22555D1*
X24460D1*
Y25401D1*
X27306D1*
Y24855D1*
X27584Y25118D1*
X27585Y41123D1*
X27644Y41433D1*
X27830Y41715D1*
X40283Y54168D1*
X40221Y54275D1*
X27136Y41191D1*
X27249Y40925D1*
X27318Y40488D1*
X27283Y40173D1*
X27179Y39873D1*
X27013Y39604D1*
X26791Y39377D1*
X26526Y39205D1*
X26228Y39095D1*
X25914Y39053D1*
X25599Y39081D1*
X25297Y39177D1*
X25024Y39338D1*
X24792Y39554D1*
X24614Y39816D1*
X24498Y40111D1*
X24449Y40424D1*
X24470Y40740D1*
X24560Y41044D1*
X24714Y41321D1*
X24925Y41557D1*
X25183Y41741D1*
X25412Y41837D1*
X29096Y45530D1*
X27750D1*
Y48146D1*
X30366D1*
Y46786D1*
X39020Y55445D1*
X39015Y63348D1*
Y66017D1*
X38765Y65670D1*
X38509Y65484D1*
X38213Y65372D1*
X37898Y65343D1*
X37586Y65398D1*
X37301Y65534D1*
X37061Y65742D1*
X36886Y66005D1*
X36787Y66306D1*
X36771Y66622D1*
X36839Y66931D1*
X36988Y67211D1*
X37117Y67347D1*
X37110Y70015D1*
Y70968D1*
X37169Y71278D1*
X37355Y71560D1*
X38386Y72592D1*
X38380Y77000D1*
Y83033D1*
X38439Y83343D1*
X38625Y83625D1*
X42196Y87196D1*
X42190Y90345D1*
X42016Y90180D1*
X41748Y90009D1*
X41450Y89903D1*
X41136Y89865D1*
X40820Y89897D1*
X40520Y89998D1*
X40250Y90164D1*
X40023Y90385D1*
X39856Y90642D1*
X39699Y90405D1*
X39476Y90180D1*
X39208Y90009D1*
X38910Y89903D1*
X38596Y89865D1*
X38280Y89897D1*
X37980Y89998D1*
X37710Y90164D1*
X37483Y90385D1*
X37316Y90642D1*
X37159Y90405D1*
X36936Y90180D1*
X36668Y90009D1*
X36370Y89903D1*
X36056Y89865D1*
X35740Y89897D1*
X35618Y89938D1*
X35611Y86823D1*
Y84938D1*
X35551Y84628D1*
X35365Y84345D1*
X30531Y79511D1*
Y75125D1*
X34730Y70925D1*
X34907Y70664D1*
X34976Y70333D1*
Y68428D1*
X34916Y68118D1*
X34730Y67835D1*
X33194Y66299D1*
X33316Y66175D1*
X33493Y65913D1*
X33608Y65618D1*
X33656Y65253D1*
X33620Y64938D1*
X33516Y64638D1*
X33349Y64370D1*
X33126Y64145D1*
X32858Y63974D1*
X32560Y63868D1*
X32246Y63830D1*
X31930Y63862D1*
X31630Y63963D1*
X31360Y64129D1*
X31133Y64350D1*
X30966Y64607D1*
X30809Y64370D1*
X30586Y64145D1*
X30318Y63974D1*
X30020Y63868D1*
X29706Y63830D1*
X29390Y63862D1*
X29090Y63963D1*
X28820Y64129D1*
X28577Y64374D1*
X28576Y63830D1*
X25730D1*
Y66676D1*
X28576D1*
Y66130D1*
X28780Y66344D1*
X29044Y66519D1*
X29340Y66631D1*
X29654Y66675D1*
X29970Y66648D1*
X30272Y66553D1*
X30545Y66392D1*
X30776Y66175D1*
X30964Y65885D1*
X31101Y66115D1*
X31394Y66393D1*
X31395Y66523D1*
X31454Y66833D1*
X31640Y67115D1*
X33078Y68553D1*
X32858Y68419D1*
X32560Y68313D1*
X32246Y68275D1*
X31930Y68307D1*
X31630Y68408D1*
X31360Y68574D1*
X31133Y68795D1*
X30966Y69052D1*
X30809Y68815D1*
X30586Y68590D1*
X30318Y68419D1*
X30020Y68313D1*
X29706Y68275D1*
X29390Y68307D1*
X29090Y68408D1*
X28820Y68574D1*
X28577Y68819D1*
X28576Y68275D1*
X25730D1*
Y71121D1*
X28576D1*
Y70575D1*
X28780Y70789D1*
X29044Y70964D1*
X29340Y71076D1*
X29654Y71120D1*
X29970Y71093D1*
X30272Y70998D1*
X30545Y70837D1*
X30776Y70620D1*
X30964Y70330D1*
X31101Y70560D1*
X31320Y70789D1*
X31584Y70964D1*
X31880Y71076D1*
X32164Y71116D1*
X29100Y74185D1*
X28923Y74446D1*
X28855Y74778D1*
Y79858D1*
X28914Y80168D1*
X29100Y80450D1*
X32250Y83600D1*
X32055Y83709D1*
X31805Y83919D1*
X31801Y83465D1*
X28855D1*
Y86411D1*
X31801D1*
Y85944D1*
X32015Y86139D1*
X32292Y86293D1*
X32595Y86385D1*
X32911Y86410D1*
X33225Y86367D1*
X33522Y86257D1*
X33789Y86087D1*
X33936Y85940D1*
X33935Y89928D1*
X33516Y89865D1*
X33200Y89897D1*
X32900Y89998D1*
X32630Y90164D1*
X32403Y90385D1*
X32236Y90642D1*
X32079Y90405D1*
X31856Y90180D1*
X31588Y90009D1*
X31290Y89903D1*
X30976Y89865D1*
X30660Y89897D1*
X30360Y89998D1*
X30090Y90164D1*
X29863Y90385D1*
X29696Y90642D1*
X29539Y90405D1*
X29316Y90180D1*
X29048Y90009D1*
X28750Y89903D1*
X28465Y89868D1*
X28527Y89777D1*
X28621Y89475D1*
X28626Y83985D1*
Y83668D1*
X28566Y83358D1*
X28380Y83075D1*
X26717Y81412D1*
X26721Y79808D1*
X27029Y79513D1*
X27200Y79247D1*
X27311Y78950D1*
X27356Y78588D1*
X27322Y78273D1*
Y32553D2*
X27221Y32252D1*
X27058Y31980D1*
X26889Y31800D1*
X27356Y31801D1*
Y28855D1*
X24410D1*
Y31801D1*
X24876D1*
X24631Y32091D1*
X24494Y32377D1*
X24421Y32685D1*
X24416Y33002D1*
X24478Y33313D1*
X24606Y33603D1*
X24793Y33859D1*
X25030Y34069D1*
X25307Y34223D1*
X25610Y34315D1*
X25926Y34340D1*
X26240Y34297D1*
X26537Y34187D1*
X26804Y34017D1*
X27029Y33793D1*
X27200Y33527D1*
X27311Y33230D1*
X27356Y32868D1*
X27322Y32553D1*
X59652Y134671D2*
X62281D1*
Y131725D1*
X59335D1*
Y134671D1*
X59652D1*
X35407Y110023D2*
X35295Y109727D1*
X35114Y109467D1*
X34876Y109258D1*
X34595Y109112D1*
X34287Y109038D1*
X33970Y109040D1*
X33663Y109118D1*
X33384Y109268D1*
X33149Y109481D1*
X32972Y109743D1*
X32864Y110041D1*
X32830Y110356D1*
X32872Y110669D1*
X32989Y110964D1*
X33173Y111221D1*
X33414Y111427D1*
X33697Y111569D1*
X34006Y111639D1*
X34323Y111633D1*
X34629Y111550D1*
X34906Y111397D1*
X35138Y111181D1*
X35311Y110916D1*
X35416Y110617D1*
X35446Y110338D1*
X35407Y110023D1*
X38582Y56683D2*
X38470Y56387D1*
X38289Y56127D1*
X38051Y55918D1*
X37770Y55772D1*
X37462Y55698D1*
X37145Y55700D1*
X36838Y55778D1*
X36559Y55928D1*
X36324Y56141D1*
X36147Y56403D1*
X36039Y56701D1*
X36005Y57016D1*
X36047Y57329D1*
X36164Y57624D1*
X36348Y57881D1*
X36589Y58087D1*
X36872Y58229D1*
X37181Y58299D1*
X37498Y58293D1*
X37804Y58210D1*
X38081Y58057D1*
X38313Y57841D1*
X38486Y57576D1*
X38591Y57277D1*
X38621Y56998D1*
X38582Y56683D1*
X36322Y63386D2*
X38621D1*
X38611Y60770D1*
X38679Y60610D1*
X38748Y60173D1*
X38713Y59858D1*
X38609Y59558D1*
X38443Y59289D1*
X38221Y59062D1*
X37956Y58890D1*
X37658Y58780D1*
X37344Y58738D1*
X37029Y58766D1*
X36727Y58862D1*
X36454Y59023D1*
X36222Y59239D1*
X36044Y59501D1*
X35928Y59796D1*
X35879Y60109D1*
X35900Y60425D1*
X36014Y60772D1*
X36005Y61405D1*
Y63386D1*
X36322D1*
X21717Y52591D2*
X22838D1*
X26560Y56320D1*
X26821Y56497D1*
X27153Y56566D1*
X29802D1*
X30005Y56797D1*
X30263Y56981D1*
X30556Y57104D1*
X30867Y57160D1*
X31184Y57146D1*
X31490Y57062D1*
X31770Y56914D1*
X32010Y56708D1*
X32200Y56454D1*
X32329Y56165D1*
X32398Y55728D1*
X32363Y55413D1*
X32259Y55113D1*
X32093Y54844D1*
X31871Y54617D1*
X31606Y54445D1*
X31308Y54335D1*
X30994Y54293D1*
X30679Y54321D1*
X30377Y54417D1*
X30104Y54578D1*
X29872Y54794D1*
X29811Y54884D1*
X27500Y54890D1*
X24020Y51410D1*
X24016Y49975D1*
X23549D1*
X23546Y47840D1*
X23708Y47681D1*
X23881Y47416D1*
X23986Y47117D1*
X24016Y46838D1*
X23977Y46523D1*
X23865Y46227D1*
X23684Y45967D1*
X23446Y45758D1*
X23165Y45612D1*
X22857Y45538D1*
X22540Y45540D1*
X22233Y45618D1*
X21954Y45768D1*
X21859Y45854D1*
X21711Y45727D1*
X21446Y45555D1*
X21148Y45445D1*
X20834Y45403D1*
X20519Y45431D1*
X20217Y45527D1*
X19944Y45688D1*
X19712Y45904D1*
X19534Y46166D1*
X19418Y46461D1*
X19369Y46774D1*
X19390Y47090D1*
X19480Y47394D1*
X19634Y47671D1*
X19845Y47907D1*
X20103Y48091D1*
X20396Y48214D1*
X20707Y48270D1*
X21024Y48256D1*
X21330Y48172D1*
X21610Y48024D1*
X21843Y47825D1*
X21870Y48425D1*
Y49983D1*
X21400Y49975D1*
Y52591D1*
X21717D1*
X13462Y34176D2*
X15761D1*
Y31560D1*
X13145D1*
Y34176D1*
X13462D1*
X22072Y32553D2*
X21960Y32257D1*
X21779Y31997D1*
X21541Y31788D1*
X21260Y31642D1*
X20952Y31568D1*
X20635Y31570D1*
X20328Y31648D1*
X20049Y31798D1*
X19814Y32011D1*
X19637Y32273D1*
X19529Y32571D1*
X19495Y32886D1*
X19537Y33199D1*
X19654Y33494D1*
X19838Y33751D1*
X20079Y33957D1*
X20362Y34099D1*
X20671Y34169D1*
X20988Y34163D1*
X21294Y34080D1*
X21571Y33927D1*
X21803Y33711D1*
X21976Y33446D1*
X22081Y33147D1*
X22111Y32868D1*
X22072Y32553D1*
X19812Y29096D2*
X22111D1*
Y26480D1*
X19495D1*
Y29096D1*
X19812D1*
X45732Y125731D2*
X48261D1*
Y122885D1*
X45415D1*
Y125731D1*
X45732D1*
X52761Y125452D2*
X53001Y125230D1*
X53189Y124940D1*
X53326Y125170D1*
X53545Y125399D1*
X53809Y125574D1*
X54105Y125686D1*
X54419Y125730D1*
X54735Y125703D1*
X55037Y125608D1*
X55310Y125447D1*
X55541Y125230D1*
X55729Y124940D1*
X55866Y125170D1*
X56085Y125399D1*
X56349Y125574D1*
X56645Y125686D1*
X56959Y125730D1*
X57275Y125703D1*
X57577Y125608D1*
X57850Y125447D1*
X58081Y125230D1*
X58269Y124940D1*
X58406Y125170D1*
X58625Y125399D1*
X58889Y125574D1*
X59185Y125686D1*
X59499Y125730D1*
X59815Y125703D1*
X60117Y125608D1*
X60390Y125447D1*
X60621Y125230D1*
X60798Y124968D1*
X60913Y124673D1*
X60961Y124308D1*
X60925Y123993D1*
X60821Y123693D1*
X60654Y123425D1*
X60431Y123200D1*
X60163Y123029D1*
X59865Y122923D1*
X59551Y122885D1*
X59324Y122908D1*
X54665Y118250D1*
X54661Y98273D1*
Y95098D1*
X54601Y94788D1*
X54415Y94505D1*
X49335Y89425D1*
X49074Y89248D1*
X48743Y89180D1*
X47979D1*
X47731Y88910D1*
X47472Y88745D1*
X47690Y88617D1*
X47921Y88400D1*
X47982Y88310D1*
X52870Y88316D1*
X54745D1*
X56163Y89733D1*
X56160Y112243D1*
X56219Y112553D1*
X56405Y112835D1*
X63779Y120209D1*
X63780Y125865D1*
X62362Y127283D1*
X53535Y127279D1*
X52749Y126494D1*
X52756Y125449D1*
X14617Y71756D2*
X17146D1*
Y68909D1*
X16600D1*
X16806Y68715D1*
X16983Y68453D1*
X17098Y68158D1*
X17146Y67793D1*
X17110Y67478D1*
X17006Y67178D1*
X16839Y66910D1*
X16616Y66685D1*
X16357Y66520D1*
X16575Y66392D1*
X16806Y66175D1*
X16983Y65913D1*
X17098Y65618D1*
X17146Y65253D1*
X17110Y64938D1*
X17006Y64638D1*
X16839Y64370D1*
X16616Y64145D1*
X16357Y63980D1*
X16575Y63852D1*
X16806Y63635D1*
X16983Y63373D1*
X17098Y63078D1*
X17146Y62713D1*
X17110Y62398D1*
X17006Y62098D1*
X16839Y61830D1*
X16616Y61605D1*
X16357Y61440D1*
X16575Y61312D1*
X16806Y61095D1*
X16983Y60833D1*
X17098Y60538D1*
X17146Y60173D1*
X17110Y59858D1*
X17006Y59558D1*
X16839Y59290D1*
X16616Y59065D1*
X16357Y58900D1*
X16575Y58772D1*
X16806Y58555D1*
X16983Y58293D1*
X17098Y57998D1*
X17146Y57633D1*
X17110Y57318D1*
X17006Y57018D1*
X16839Y56750D1*
X16616Y56525D1*
X16348Y56354D1*
X16050Y56248D1*
X15736Y56210D1*
X15420Y56242D1*
X15120Y56343D1*
X14850Y56509D1*
X14623Y56730D1*
X14450Y56995D1*
X14341Y57293D1*
X14300Y57607D1*
X14329Y57922D1*
X14428Y58223D1*
X14591Y58495D1*
X14810Y58724D1*
X15083Y58903D1*
X14850Y59049D1*
X14623Y59270D1*
X14450Y59535D1*
X14341Y59833D1*
X14300Y60147D1*
X14329Y60462D1*
X14428Y60763D1*
X14591Y61035D1*
X14810Y61264D1*
X15083Y61443D1*
X14850Y61589D1*
X14623Y61810D1*
X14450Y62075D1*
X14341Y62373D1*
X14300Y62687D1*
X14329Y63002D1*
X14428Y63303D1*
X14591Y63575D1*
X14810Y63804D1*
X15083Y63983D1*
X14850Y64129D1*
X14623Y64350D1*
X14450Y64615D1*
X14341Y64913D1*
X14300Y65227D1*
X14329Y65542D1*
X14428Y65843D1*
X14591Y66115D1*
X14810Y66344D1*
X15083Y66523D1*
X14850Y66669D1*
X14623Y66890D1*
X14450Y67155D1*
X14341Y67453D1*
X14300Y67767D1*
X14329Y68082D1*
X14428Y68383D1*
X14591Y68655D1*
X14851Y68912D1*
X14300Y68909D1*
Y71756D1*
X14617D1*
X16522Y109221D2*
X19051D1*
Y106375D1*
X18505D1*
X18711Y106180D1*
X18888Y105918D1*
X19003Y105623D1*
X19051Y105258D1*
X19015Y104943D1*
X18911Y104643D1*
X18744Y104375D1*
X18521Y104150D1*
X18262Y103985D1*
X18480Y103857D1*
X18711Y103640D1*
X18888Y103378D1*
X19003Y103083D1*
X19051Y102718D1*
X19015Y102403D1*
X18911Y102103D1*
X18744Y101835D1*
X18521Y101610D1*
X18262Y101445D1*
X18480Y101317D1*
X18711Y101100D1*
X18888Y100838D1*
X19003Y100543D1*
X19051Y100178D1*
X19015Y99863D1*
X18911Y99563D1*
X18744Y99295D1*
X18521Y99070D1*
X18253Y98899D1*
X17955Y98793D1*
X17641Y98755D1*
X17325Y98787D1*
X17025Y98888D1*
X16755Y99054D1*
X16528Y99275D1*
X16355Y99540D1*
X16246Y99838D1*
X16205Y100152D1*
X16234Y100467D1*
X16333Y100768D1*
X16496Y101040D1*
X16715Y101269D1*
X16988Y101448D1*
X16755Y101594D1*
X16528Y101815D1*
X16355Y102080D1*
X16246Y102378D1*
X16205Y102692D1*
X16234Y103007D1*
X16333Y103308D1*
X16496Y103580D1*
X16715Y103809D1*
X16988Y103988D1*
X16755Y104134D1*
X16528Y104355D1*
X16355Y104620D1*
X16246Y104918D1*
X16205Y105232D1*
X16234Y105547D1*
X16333Y105848D1*
X16496Y106120D1*
X16756Y106377D1*
X16205Y106375D1*
Y109221D1*
X16522D1*
X63478Y36998D2*
X63374Y36698D1*
X63208Y36429D1*
X62986Y36202D1*
X62721Y36030D1*
X62423Y35920D1*
X62109Y35878D1*
X61794Y35906D1*
X61492Y36002D1*
X61219Y36163D1*
X60987Y36379D1*
X60809Y36641D1*
X60693Y36936D1*
X60644Y37249D1*
X60665Y37565D1*
X60755Y37869D1*
X60909Y38146D1*
X61120Y38382D1*
X61378Y38566D1*
X61671Y38689D1*
X61982Y38745D1*
X62299Y38731D1*
X62605Y38647D1*
X62885Y38499D1*
X63125Y38293D1*
X63315Y38039D1*
X63444Y37750D1*
X63513Y37313D1*
X63478Y36998D1*
Y40808D2*
X63374Y40508D1*
X63208Y40239D1*
X62986Y40012D1*
X62721Y39840D1*
X62423Y39730D1*
X62109Y39688D1*
X61794Y39716D1*
X61492Y39812D1*
X61219Y39973D1*
X60987Y40189D1*
X60809Y40451D1*
X60693Y40746D1*
X60644Y41059D1*
X60665Y41375D1*
X60755Y41679D1*
X60909Y41956D1*
X61120Y42192D1*
X61378Y42376D1*
X61671Y42499D1*
X61982Y42555D1*
X62299Y42541D1*
X62605Y42457D1*
X62885Y42309D1*
X63125Y42103D1*
X63315Y41849D1*
X63444Y41560D1*
X63513Y41123D1*
X63478Y40808D1*
X59668Y47158D2*
X59564Y46858D1*
X59398Y46589D1*
X59176Y46362D1*
X58911Y46190D1*
X58613Y46080D1*
X58299Y46038D1*
X57984Y46066D1*
X57682Y46162D1*
X57409Y46323D1*
X57177Y46539D1*
X56999Y46801D1*
X56883Y47096D1*
X56834Y47409D1*
X56855Y47725D1*
X56945Y48029D1*
X57099Y48306D1*
X57310Y48542D1*
X57568Y48726D1*
X57861Y48849D1*
X58172Y48905D1*
X58489Y48891D1*
X58795Y48807D1*
X59075Y48659D1*
X59315Y48453D1*
X59505Y48199D1*
X59634Y47910D1*
X59703Y47473D1*
X59668Y47158D1*
X54588Y33823D2*
X54484Y33523D1*
X54318Y33254D1*
X54096Y33027D1*
X53831Y32855D1*
X53533Y32745D1*
X53219Y32703D1*
X52904Y32731D1*
X52602Y32827D1*
X52329Y32988D1*
X52097Y33204D1*
X51919Y33466D1*
X51803Y33761D1*
X51754Y34074D1*
X51775Y34390D1*
X51865Y34694D1*
X52019Y34971D1*
X52230Y35207D1*
X52488Y35391D1*
X52781Y35514D1*
X53092Y35570D1*
X53409Y35556D1*
X53715Y35472D1*
X53995Y35324D1*
X54235Y35118D1*
X54425Y34864D1*
X54554Y34575D1*
X54623Y34138D1*
X54588Y33823D1*
Y43983D2*
X54484Y43683D1*
X54318Y43414D1*
X54096Y43187D1*
X53831Y43015D1*
X53533Y42905D1*
X53219Y42863D1*
X52904Y42891D1*
X52602Y42987D1*
X52329Y43148D1*
X52097Y43364D1*
X51919Y43626D1*
X51803Y43921D1*
X51754Y44234D1*
X51775Y44550D1*
X51865Y44854D1*
X52019Y45131D1*
X52230Y45367D1*
X52488Y45551D1*
X52781Y45674D1*
X53092Y45730D1*
X53409Y45716D1*
X53715Y45632D1*
X53995Y45484D1*
X54235Y45278D1*
X54425Y45024D1*
X54554Y44735D1*
X54623Y44298D1*
X54588Y43983D1*
X48873Y31918D2*
X48769Y31618D1*
X48603Y31349D1*
X48381Y31122D1*
X48116Y30950D1*
X47818Y30840D1*
X47504Y30798D1*
X47189Y30826D1*
X46887Y30922D1*
X46614Y31083D1*
X46382Y31299D1*
X46204Y31561D1*
X46088Y31856D1*
X46039Y32169D1*
X46060Y32485D1*
X46150Y32789D1*
X46304Y33066D1*
X46515Y33302D1*
X46773Y33486D1*
X47066Y33609D1*
X47377Y33665D1*
X47694Y33651D1*
X48000Y33567D1*
X48280Y33419D1*
X48520Y33213D1*
X48710Y32959D1*
X48839Y32670D1*
X48908Y32233D1*
X48873Y31918D1*
X59668Y28108D2*
X59564Y27808D1*
X59398Y27539D1*
X59176Y27312D1*
X58911Y27140D1*
X58613Y27030D1*
X58299Y26988D1*
X57984Y27016D1*
X57682Y27112D1*
X57409Y27273D1*
X57177Y27489D1*
X56999Y27751D1*
X56883Y28046D1*
X56834Y28359D1*
X56855Y28675D1*
X56945Y28979D1*
X57099Y29256D1*
X57310Y29492D1*
X57568Y29676D1*
X57861Y29799D1*
X58172Y29855D1*
X58489Y29841D1*
X58795Y29757D1*
X59075Y29609D1*
X59315Y29403D1*
X59505Y29149D1*
X59634Y28860D1*
X59703Y28423D1*
X59668Y28108D1*
X35538Y106213D2*
X35434Y105913D1*
X35268Y105644D1*
X35046Y105417D1*
X34781Y105245D1*
X34483Y105135D1*
X34169Y105093D1*
X33854Y105121D1*
X33552Y105217D1*
X33279Y105378D1*
X33047Y105594D1*
X32869Y105856D1*
X32753Y106151D1*
X32704Y106464D1*
X32725Y106780D1*
X32815Y107084D1*
X32969Y107361D1*
X33180Y107597D1*
X33438Y107781D1*
X33731Y107904D1*
X34042Y107960D1*
X34359Y107946D1*
X34665Y107862D1*
X34945Y107714D1*
X35185Y107508D1*
X35375Y107254D1*
X35504Y106965D1*
X35573Y106528D1*
X35538Y106213D1*
X22203Y55413D2*
X22099Y55113D1*
X21933Y54844D1*
X21711Y54617D1*
X21446Y54445D1*
X21148Y54335D1*
X20834Y54293D1*
X20519Y54321D1*
X20217Y54417D1*
X19944Y54578D1*
X19712Y54794D1*
X19534Y55056D1*
X19418Y55351D1*
X19369Y55664D1*
X19390Y55980D1*
X19480Y56284D1*
X19634Y56561D1*
X19845Y56797D1*
X19966Y56883D1*
X19965Y67644D1*
X19582Y67752D1*
X19309Y67913D1*
X19077Y68129D1*
X18899Y68391D1*
X18783Y68686D1*
X18734Y68999D1*
X18755Y69315D1*
X18845Y69619D1*
X18999Y69896D1*
X19210Y70132D1*
X19468Y70316D1*
X19761Y70439D1*
X20072Y70495D1*
X20389Y70481D1*
X20695Y70397D1*
X20975Y70249D1*
X21215Y70043D1*
X21405Y69789D1*
X21534Y69500D1*
X21603Y69063D1*
X21572Y68759D1*
X21641Y68428D1*
Y56888D1*
X21850Y56708D1*
X22040Y56454D1*
X22169Y56165D1*
X22238Y55728D1*
X22203Y55413D1*
Y36363D2*
X22099Y36063D1*
X21933Y35794D1*
X21711Y35567D1*
X21446Y35395D1*
X21148Y35285D1*
X20834Y35243D1*
X20519Y35271D1*
X20217Y35367D1*
X19944Y35528D1*
X19712Y35744D1*
X19534Y36006D1*
X19418Y36301D1*
X19369Y36614D1*
X19390Y36930D1*
X19480Y37234D1*
X19634Y37511D1*
X19845Y37747D1*
X20103Y37931D1*
X20396Y38054D1*
X20707Y38110D1*
X21024Y38096D1*
X21330Y38012D1*
X21610Y37864D1*
X21850Y37658D1*
X22040Y37404D1*
X22169Y37115D1*
X22238Y36678D1*
X22203Y36363D1*
X24743Y70018D2*
X24639Y69718D1*
X24473Y69449D1*
X24251Y69222D1*
X23986Y69050D1*
X23688Y68940D1*
X23374Y68898D1*
X23059Y68926D1*
X22757Y69022D1*
X22484Y69183D1*
X22252Y69399D1*
X22074Y69661D1*
X21958Y69956D1*
X21909Y70269D1*
X21930Y70585D1*
X22020Y70889D1*
X22174Y71166D1*
X22385Y71402D1*
X22643Y71586D1*
X22936Y71709D1*
X23247Y71765D1*
X23564Y71751D1*
X23870Y71667D1*
X24150Y71519D1*
X24390Y71313D1*
X24580Y71059D1*
X24709Y70770D1*
X24778Y70333D1*
X24743Y70018D1*
Y59858D2*
X24639Y59558D1*
X24473Y59289D1*
X24251Y59062D1*
X23986Y58890D1*
X23688Y58780D1*
X23374Y58738D1*
X23059Y58766D1*
X22757Y58862D1*
X22484Y59023D1*
X22252Y59239D1*
X22074Y59501D1*
X21958Y59796D1*
X21909Y60109D1*
X21930Y60425D1*
X22020Y60729D1*
X22174Y61006D1*
X22385Y61242D1*
X22643Y61426D1*
X22936Y61549D1*
X23247Y61605D1*
X23564Y61591D1*
X23870Y61507D1*
X24150Y61359D1*
X24390Y61153D1*
X24580Y60899D1*
X24709Y60610D1*
X24778Y60173D1*
X24743Y59858D1*
X21568Y78908D2*
X21464Y78608D1*
X21298Y78339D1*
X21076Y78112D1*
X20811Y77940D1*
X20513Y77830D1*
X20199Y77788D1*
X19884Y77816D1*
X19582Y77912D1*
X19309Y78073D1*
X19077Y78289D1*
X18899Y78551D1*
X18783Y78846D1*
X18734Y79159D1*
X18755Y79475D1*
X18845Y79779D1*
X18999Y80056D1*
X19210Y80292D1*
X19468Y80476D1*
X19761Y80599D1*
X20072Y80655D1*
X20389Y80641D1*
X20695Y80557D1*
X20975Y80409D1*
X21215Y80203D1*
X21405Y79949D1*
X21534Y79660D1*
X21603Y79223D1*
X21568Y78908D1*
X28553Y59858D2*
X28449Y59558D1*
X28283Y59289D1*
X28061Y59062D1*
X27796Y58890D1*
X27498Y58780D1*
X27184Y58738D1*
X26869Y58766D1*
X26567Y58862D1*
X26294Y59023D1*
X26062Y59239D1*
X25884Y59501D1*
X25768Y59796D1*
X25719Y60109D1*
X25740Y60425D1*
X25830Y60729D1*
X25984Y61006D1*
X26195Y61242D1*
X26453Y61426D1*
X26746Y61549D1*
X27057Y61605D1*
X27374Y61591D1*
X27680Y61507D1*
X27960Y61359D1*
X28200Y61153D1*
X28390Y60899D1*
X28519Y60610D1*
X28588Y60173D1*
X28553Y59858D1*
X47980Y84097D2*
X47731Y83830D1*
X47463Y83659D1*
X47165Y83553D1*
X46851Y83515D1*
X46535Y83547D1*
X46413Y83588D1*
X46406Y81217D1*
X46799Y81280D1*
X47115Y81253D1*
X47417Y81158D1*
X47690Y80997D1*
X47921Y80780D1*
X48098Y80518D1*
X48213Y80223D1*
X48261Y79858D1*
X48225Y79543D1*
X48121Y79243D1*
X47954Y78975D1*
X47731Y78750D1*
X47472Y78585D1*
X47690Y78457D1*
X47921Y78240D1*
X48098Y77978D1*
X48213Y77683D1*
X48261Y77318D1*
X48225Y77003D1*
X48121Y76703D1*
X47954Y76435D1*
X47731Y76210D1*
X47472Y76045D1*
X47690Y75917D1*
X47921Y75700D1*
X48098Y75438D1*
X48213Y75143D1*
X48261Y74778D1*
X48225Y74463D1*
X48121Y74163D1*
X47954Y73895D1*
X47731Y73670D1*
X47472Y73505D1*
X47690Y73377D1*
X47921Y73160D1*
X48098Y72898D1*
X48213Y72603D1*
X48261Y72238D1*
X48225Y71923D1*
X48121Y71623D1*
X47954Y71355D1*
X47731Y71130D1*
X47472Y70965D1*
X47690Y70837D1*
X47921Y70620D1*
X47982Y70530D1*
X48743Y70536D1*
X49053Y70476D1*
X49335Y70290D1*
X51714Y67912D1*
X51715Y80780D1*
X48389Y84106D1*
X47979Y84100D1*
X27987Y92635D2*
X28384Y92710D1*
X28700Y92683D1*
X29002Y92588D1*
X29275Y92427D1*
X29506Y92210D1*
X29694Y91920D1*
X29831Y92150D1*
X30050Y92379D1*
X30314Y92554D1*
X30610Y92666D1*
X30924Y92710D1*
X31240Y92683D1*
X31542Y92588D1*
X31815Y92427D1*
X32046Y92210D1*
X32234Y91920D1*
X32371Y92150D1*
X32590Y92379D1*
X32854Y92554D1*
X33150Y92666D1*
X33464Y92710D1*
X33780Y92683D1*
X33940Y92633D1*
X33971Y92782D1*
X34118Y93061D1*
X37997Y96947D1*
X39715Y98666D1*
X39700Y98862D1*
X39729Y99177D1*
X39828Y99478D1*
X39991Y99750D1*
X40203Y99972D1*
X37660Y99974D1*
X37281Y99596D1*
X37418Y99253D1*
X37466Y98888D1*
X37430Y98573D1*
X37326Y98273D1*
X37159Y98005D1*
X36936Y97780D1*
X36668Y97609D1*
X36370Y97503D1*
X36056Y97465D1*
X35740Y97497D1*
X35440Y97598D1*
X35170Y97764D1*
X34943Y97985D1*
X34776Y98242D1*
X34619Y98005D1*
X34396Y97780D1*
X34128Y97609D1*
X33830Y97503D1*
X33516Y97465D1*
X33200Y97497D1*
X32900Y97598D1*
X32630Y97764D1*
X32403Y97985D1*
X32236Y98242D1*
X32079Y98005D1*
X31856Y97780D1*
X31588Y97609D1*
X31290Y97503D1*
X30976Y97465D1*
X30660Y97497D1*
X30360Y97598D1*
X30090Y97764D1*
X29863Y97985D1*
X29696Y98242D1*
X29539Y98005D1*
X29316Y97780D1*
X29048Y97609D1*
X28750Y97503D1*
X28436Y97465D1*
X28120Y97497D1*
X27820Y97598D1*
X27550Y97764D1*
X27323Y97985D1*
X27156Y98242D1*
X26999Y98005D1*
X26776Y97780D1*
X26508Y97609D1*
X26210Y97503D1*
X25956Y97460D1*
X27745Y95670D1*
X27922Y95409D1*
X27991Y95078D1*
Y92647D1*
X16953Y52810D2*
X17229Y53028D1*
X17513Y53091D1*
X19013D1*
X19302Y53025D1*
X19489Y52894D1*
X19739Y52644D1*
X19873Y52451D1*
X19936Y52168D1*
Y51668D1*
X19866Y51372D1*
X19873Y51026D1*
X19936Y50648D1*
X19893Y50334D1*
X19749Y50020D1*
X19873Y49756D1*
X19936Y49378D1*
X19893Y49064D1*
X19768Y48773D1*
X19570Y48526D1*
X19313Y48342D1*
X19016Y48232D1*
X18763Y48205D1*
X17763Y48214D1*
X17700Y48206D1*
X17389Y48265D1*
X17106Y48406D1*
X16870Y48617D1*
X16699Y48883D1*
X16605Y49186D1*
X16596Y49502D1*
X16672Y49809D1*
X16783Y50008D1*
X16699Y50153D1*
X16605Y50456D1*
X16596Y50772D1*
X16672Y51079D1*
X16754Y51226D1*
X16652Y51384D1*
X16590Y51668D1*
Y52168D1*
X16655Y52457D1*
X16787Y52644D1*
X16953Y52810D1*
X48782Y35785D2*
X48506Y35567D1*
X48223Y35505D1*
X46723D1*
X46433Y35570D1*
X46247Y35702D1*
X45997Y35952D1*
X45862Y36144D1*
X45800Y36428D1*
Y36928D1*
X45869Y37223D1*
X45909Y37453D1*
X45815Y37756D1*
X45806Y38072D1*
X45882Y38379D1*
X45993Y38578D1*
X45909Y38723D1*
X45815Y39026D1*
X45806Y39342D1*
X45882Y39649D1*
X46037Y39925D1*
X46260Y40150D1*
X46535Y40306D1*
X46842Y40383D1*
X47290Y40391D1*
X48159Y40376D1*
X48462Y40284D1*
X48729Y40114D1*
X48941Y39880D1*
X49083Y39596D1*
X49146Y39218D1*
X49103Y38904D1*
X48959Y38590D1*
X49083Y38326D1*
X49146Y37948D1*
X49103Y37634D1*
X48990Y37370D1*
X49083Y37211D1*
X49146Y36928D1*
Y36428D1*
X49080Y36138D1*
X48949Y35952D1*
X48782Y35785D1*
X59577Y38960D2*
X59301Y38742D1*
X59018Y38680D1*
X57518D1*
X57228Y38745D1*
X57042Y38877D1*
X56792Y39127D1*
X56657Y39319D1*
X56595Y39603D1*
Y40103D1*
X56664Y40398D1*
X56704Y40628D1*
X56610Y40931D1*
X56601Y41247D1*
X56677Y41554D1*
X56788Y41753D1*
X56704Y41898D1*
X56610Y42201D1*
X56601Y42517D1*
X56677Y42824D1*
X56832Y43100D1*
X57055Y43325D1*
X57330Y43481D1*
X57637Y43558D1*
X58085Y43566D1*
X58954Y43551D1*
X59257Y43459D1*
X59524Y43289D1*
X59736Y43055D1*
X59878Y42771D1*
X59941Y42393D1*
X59898Y42079D1*
X59754Y41765D1*
X59878Y41501D1*
X59941Y41123D1*
X59898Y40809D1*
X59785Y40545D1*
X59878Y40386D1*
X59941Y40103D1*
Y39603D1*
X59875Y39313D1*
X59744Y39127D1*
X59577Y38960D1*
X43001Y75098D2*
X42886Y74803D1*
X42703Y74545D1*
X42461Y74340D1*
X42177Y74200D1*
X41867Y74135D1*
X41551Y74147D1*
X41247Y74236D1*
X40974Y74397D1*
X40749Y74620D1*
X40586Y74891D1*
X40494Y75194D1*
X40479Y75510D1*
X40542Y75821D1*
X40679Y76106D1*
X40881Y76349D1*
X41138Y76536D1*
X41432Y76653D1*
X41746Y76695D1*
X42060Y76659D1*
X42356Y76547D1*
X42616Y76366D1*
X42823Y76126D1*
X42966Y75843D1*
X43040Y75413D1*
X43001Y75098D1*
Y79924D2*
X42886Y79629D1*
X42703Y79371D1*
X42461Y79166D1*
X42177Y79026D1*
X41867Y78961D1*
X41551Y78973D1*
X41247Y79062D1*
X40974Y79223D1*
X40749Y79446D1*
X40586Y79717D1*
X40494Y80020D1*
X40479Y80336D1*
X40542Y80647D1*
X40679Y80932D1*
X40881Y81175D1*
X41138Y81362D1*
X41432Y81479D1*
X41746Y81521D1*
X42060Y81485D1*
X42356Y81373D1*
X42616Y81192D1*
X42823Y80952D1*
X42966Y80669D1*
X43040Y80239D1*
X43001Y79924D1*
X27322Y101768D2*
X27221Y101467D1*
X27058Y101195D1*
X26841Y100964D1*
X26580Y100785D1*
X26286Y100666D1*
X25974Y100612D1*
X25657Y100627D1*
X25351Y100709D1*
X25070Y100854D1*
X24820Y101064D1*
X24816Y100610D1*
X21870D1*
Y103556D1*
X22514D1*
X22505Y104623D1*
Y109514D1*
X22281Y109820D1*
X22182Y110121D1*
X22166Y110437D1*
X22234Y110746D1*
X22383Y111026D1*
X22600Y111256D1*
X22870Y111420D1*
X23175Y111507D1*
X23491Y111509D1*
X23797Y111428D1*
X24070Y111268D1*
X24291Y111041D1*
X24444Y110764D1*
X24518Y110456D1*
X24524Y110338D1*
X24481Y110024D1*
X24357Y109733D1*
X24178Y109508D1*
X24181Y103561D1*
X24816Y103556D1*
Y103089D1*
X25030Y103284D1*
X25307Y103438D1*
X25610Y103530D1*
X25926Y103555D1*
X26240Y103512D1*
X26537Y103402D1*
X26804Y103232D1*
X27029Y103008D1*
X27200Y102742D1*
X27311Y102445D1*
X27356Y102083D1*
X27322Y101768D1*
X36792Y88316D2*
X39421D1*
Y85370D1*
X36475D1*
Y88316D1*
X36792D1*
X35522Y81966D2*
X38151D1*
Y79020D1*
X35205D1*
Y81966D1*
X35522D1*
Y76251D2*
X38151D1*
Y73305D1*
X35205D1*
Y76251D1*
X35522D1*
D17*
X34138Y74778D3*
X25883Y78588D3*
X56998Y117958D3*
D18*
X49378D3*
D17*
X32868Y84938D3*
X40488Y86843D3*
X34138Y80493D3*
X25883Y32868D3*
Y84303D3*
D18*
X60808Y133198D3*
D17*
X76048D3*
D14*
X34138Y110338D3*
D19*
Y112878D3*
X43663Y56998D3*
D20*
X37313D3*
D19*
Y62078D3*
D20*
X43663D3*
D19*
X22708Y51283D3*
D20*
X29058D3*
D19*
Y46838D3*
D20*
X22708D3*
D19*
X14453Y32868D3*
D20*
X20803D3*
D19*
Y27788D3*
D20*
X14453D3*
D21*
X25883Y23978D3*
D22*
X28423D3*
X30963D3*
X33503D3*
X36043D3*
X38583D3*
D21*
X46838Y124308D3*
D22*
X49378D3*
X51918D3*
X54458D3*
X56998D3*
X59538D3*
D21*
X27153Y69698D3*
D22*
X29693D3*
X32233D3*
D21*
X15723Y70333D3*
D22*
Y67793D3*
Y65253D3*
Y62713D3*
Y60173D3*
Y57633D3*
D21*
X17628Y107798D3*
D22*
Y105258D3*
Y102718D3*
Y100178D3*
D21*
X27153Y65253D3*
D22*
X29693D3*
X32233D3*
D23*
X72238Y37313D3*
D24*
X62078D3*
D23*
X72238Y41123D3*
D24*
X62078D3*
D23*
X48108Y47473D3*
D24*
X58268D3*
D23*
X53188Y34138D3*
D24*
Y44298D3*
D23*
X47473Y32233D3*
D24*
X37313D3*
D23*
X58268Y28423D3*
D24*
X48108D3*
D23*
X36043Y40488D3*
D24*
X25883D3*
D23*
X44298Y106528D3*
D24*
X34138D3*
D23*
X30963Y55728D3*
D24*
X20803D3*
D23*
Y36678D3*
D24*
Y46838D3*
D23*
X23343Y70333D3*
D24*
Y60173D3*
D23*
X20168Y79223D3*
D24*
Y69063D3*
D23*
X27153Y60173D3*
D24*
X37313D3*
D25*
X87478Y13818D3*
D21*
X46838Y107798D3*
D22*
Y105258D3*
Y102718D3*
Y100178D3*
Y97638D3*
Y95098D3*
Y92558D3*
Y90018D3*
Y87478D3*
Y84938D3*
Y82398D3*
Y79858D3*
Y77318D3*
Y74778D3*
Y72238D3*
Y69698D3*
Y67158D3*
Y64618D3*
Y62078D3*
Y59538D3*
X62078D3*
Y62078D3*
Y64618D3*
Y67158D3*
Y69698D3*
Y72238D3*
Y74778D3*
Y77318D3*
Y79858D3*
Y82398D3*
Y84938D3*
Y87478D3*
Y90018D3*
Y92558D3*
Y95098D3*
Y97638D3*
Y100178D3*
Y102718D3*
Y105258D3*
Y107798D3*
D21*
X23343Y91288D3*
D22*
X25883D3*
X28423D3*
X30963D3*
X33503D3*
X36043D3*
X38583D3*
X41123D3*
Y98888D3*
X38583D3*
X36043D3*
X33503D3*
X30963D3*
X28423D3*
X25883D3*
X23343D3*
G36*
X17513Y52418D2*
X17263Y52168D1*
Y51668D1*
X17513Y51418D1*
X19013D1*
X19263Y51668D1*
Y52168D1*
X19013Y52418D1*
X17513D1*
G37*
D26*
X18263Y50648D3*
Y49378D3*
G36*
X48223Y36178D2*
X48473Y36428D1*
Y36928D1*
X48223Y37178D1*
X46723D1*
X46473Y36928D1*
Y36428D1*
X46723Y36178D1*
X48223D1*
G37*
D26*
X47473Y37948D3*
Y39218D3*
G36*
X59018Y39353D2*
X59268Y39603D1*
Y40103D1*
X59018Y40353D1*
X57518D1*
X57268Y40103D1*
Y39603D1*
X57518Y39353D1*
X59018D1*
G37*
D26*
X58268Y41123D3*
Y42393D3*
D27*
X41758Y75413D3*
Y80239D3*
D25*
X87478Y83668D3*
Y86843D3*
Y90018D3*
Y93193D3*
Y96368D3*
Y99543D3*
Y102718D3*
Y105893D3*
Y109068D3*
Y112243D3*
Y115418D3*
Y118593D3*
Y121768D3*
Y124943D3*
Y128118D3*
Y131293D3*
Y134468D3*
Y137643D3*
Y16993D3*
Y20168D3*
Y23343D3*
Y26518D3*
Y29693D3*
Y32868D3*
Y36043D3*
Y39218D3*
Y42393D3*
Y45568D3*
Y48743D3*
Y51918D3*
Y55093D3*
Y58268D3*
Y61443D3*
Y64618D3*
Y67793D3*
D17*
X25883Y102083D3*
D18*
X23343D3*
Y84303D3*
X30328Y84938D3*
X37948Y86843D3*
X36678Y80493D3*
Y74778D3*
X23343Y78588D3*
X25883Y30328D3*
M02*
