M48
METRIC,0000.00
T01C0.486
T02C0.7
T03C0.711
T04C0.813
T05C0.9
T06C0.965
T07C1.0
%
T01
X+007351Y+009954
X+007668Y+010272
X+007033Y+009637
X+006906Y+009446
X+006716Y+009319
X+006589Y+009192
X+006462Y+009065
X+006398Y+008875
X+005827Y+008748
X+005636Y+008494
X+004430Y+008240
X+004112Y+006716
X+003795Y+006652
X+004557Y+004747
X+005255Y+005192
X+005954Y+005827
X+007668Y+005509
X+007795Y+006144
X+005827Y+011224
X+004430Y+011288
X+002334Y+011034
X+007986Y+013764
T02
X+001826Y+005192
X+001826Y+005065
X+001826Y+004938
X+004747Y+003922
X+004747Y+003795
X+004747Y+003668
X+005827Y+003985
X+005827Y+004112
X+005827Y+004239
T03
X+003414Y+011034
X+003414Y+011288
X+003731Y+006208
X+003731Y+005700
X+004366Y+005700
X+004366Y+006208
X+002906Y+005128
X+002906Y+004684
X+002271Y+004684
X+002271Y+005128
X+002080Y+003287
X+002080Y+002779
X+001445Y+002779
X+001445Y+003287
T04
X+004176Y+007541
X+004176Y+008024
T05
X+006081Y+013320
X+005954Y+012431
X+005700Y+012431
X+005446Y+012431
X+005192Y+012431
X+004938Y+012431
X+004684Y+012431
X+004684Y+010780
X+004684Y+010526
X+004684Y+010272
X+004684Y+010018
X+004684Y+009764
X+004684Y+009510
X+004684Y+009256
X+004684Y+009002
X+004684Y+008748
X+004684Y+008494
X+004684Y+008240
X+004684Y+007986
X+004684Y+007732
X+004684Y+007478
X+004684Y+007224
X+004684Y+006970
X+004684Y+006716
X+004684Y+006462
X+004684Y+006208
X+004684Y+005954
X+006208Y+005954
X+006208Y+006208
X+006208Y+006462
X+006208Y+006716
X+006208Y+006970
X+006208Y+007224
X+006208Y+007478
X+006208Y+007732
X+006208Y+007986
X+006208Y+008240
X+006208Y+008494
X+006208Y+008748
X+006208Y+009002
X+006208Y+009256
X+006208Y+009510
X+006208Y+009764
X+006208Y+010018
X+006208Y+010272
X+006208Y+010526
X+006208Y+010780
X+004112Y+009889
X+003858Y+009889
X+003604Y+009889
X+003350Y+009889
X+003096Y+009889
X+002842Y+009889
X+002588Y+009889
X+002334Y+009889
X+001763Y+010018
X+001763Y+010272
X+001763Y+010526
X+001763Y+010780
X+002334Y+009129
X+002588Y+009129
X+002842Y+009129
X+003096Y+009129
X+003350Y+009129
X+003604Y+009129
X+003858Y+009129
X+004112Y+009129
X+003223Y+006970
X+002969Y+006970
X+002715Y+006970
X+002715Y+006525
X+002969Y+006525
X+003223Y+006525
X+001572Y+006525
X+001572Y+006779
X+001572Y+007033
X+001572Y+006271
X+001572Y+006017
X+001572Y+005763
X+002588Y+002398
X+002842Y+002398
X+003096Y+002398
X+003350Y+002398
X+003604Y+002398
X+003858Y+002398
X+007605Y+013320
T06
X+007224Y+003731
X+007224Y+004112
X+006208Y+004112
X+006208Y+003731
X+005319Y+003414
X+004747Y+003223
X+004811Y+002842
X+005827Y+002842
X+005319Y+004430
X+005827Y+004747
X+004811Y+004747
X+003604Y+004049
X+003731Y+003223
X+002588Y+004049
X+002080Y+003668
X+002080Y+004684
X+002080Y+005573
X+002334Y+006017
X+002715Y+006017
X+003096Y+005573
X+003731Y+006017
X+002334Y+007033
X+002017Y+006906
X+002017Y+007922
X+003414Y+010653
X+004430Y+010653
T07
X+003414Y+007478
X+003668Y+007478
X+003668Y+008049
X+003414Y+008049
X+003287Y+008494
X+003033Y+008494
X+002588Y+008430
X+002334Y+008430
X+002334Y+007859
X+002588Y+007859
X+003795Y+008684
X+004049Y+008684
X+002588Y+010208
X+002334Y+010208
X+004938Y+011796
X+005700Y+011796
X+002588Y+003287
X+002588Y+003033
T00
M30
